<svg xmlns="http://www.w3.org/2000/svg" width="100pt" height="100pt" viewBox="0 0 100 100"><g><path d="M74.074 4.496l8.609 9.078s-4.336 5.77-4.574 17.25c-.184 6.973 2.105 17.008 2.105 17.008s.902-3.484 4.156-3.605c4.152-.242 4.512 2.344 4.512 2.344l3.734 10.277s.242 1.625-.902 2.527c-1.023.84-1.988.898-1.988.898s1.445 8.535-7.164 15.867c-5.539 4.691-13.906 8.176-20.949 10.582-7.164 2.523-11.684 8.652-11.684 8.652s-4.512-6.129-11.68-8.652c-7.043-2.406-15.352-5.891-20.891-10.582-8.668-7.332-7.223-15.867-7.223-15.867s-.965-.059-1.988-.898c-1.082-.902-.902-2.527-.902-2.527l3.734-10.277s.422-2.586 4.516-2.344c3.25.121 4.152 3.605 4.152 3.605s2.289-10.039 2.105-17.008c-.238-11.48-4.574-17.25-4.574-17.25l8.609-9.078zm0 0" fill-rule="evenodd" fill="rgb(100%,98.431373%,0%)" stroke-width="0.221186" stroke-linejoin="round" stroke="#000" stroke-miterlimit="2.613"/><path d="M72.387 6.902l7.227 7.633s-3.855 7.09-4.094 18.57c-.121 6.973 7.406 22.301-1.746 30.234-5.48 4.75-8.008 6.191-15.051 8.598-7.164 2.523-8.789 5.348-8.789 5.348s-1.508-2.824-8.73-5.348c-7.043-2.406-9.512-3.848-14.992-8.598-9.148-7.934-1.625-23.262-1.805-30.234-.242-11.48-4.094-18.57-4.094-18.57l7.223-7.633zm0 0" fill-rule="evenodd" fill="rgb(0%,34.901961%,67.843137%)" stroke-width="0.221186" stroke-linejoin="round" stroke="#000" stroke-miterlimit="2.613"/><path d="M76.363 39.238c1.625 7.691 4.395 18.031-2.59 24.102-5.48 4.75-8.008 6.191-15.051 8.598-7.164 2.523-8.789 5.348-8.789 5.348.961-4.266-.363-9.859-1.508-12.742-1.082-2.824-17.758-51.934-17.758-51.934zm0 0" fill-rule="evenodd" fill="rgb(100%,98.431373%,0%)" stroke-width="0.221186" stroke-linejoin="round" stroke="#000" stroke-miterlimit="2.613"/><path d="M49.934 77.285s-.121-7.633-2.047-10.398c-1.867-2.703-4.637-5.711-7.348-4.746-2.348.781-1.926 3.543-1.926 3.543l-7.945-53.074s16.676 49.109 17.758 51.934c1.145 2.883 2.469 8.477 1.508 12.742zm0 0" fill-rule="evenodd" fill="rgb(73.333333%,74.509804%,75.294118%)" stroke-width="0.221186" stroke-linejoin="round" stroke="#000" stroke-miterlimit="2.613"/><path d="M52.281 62.68l-20.953-49.348 40.336 30.895-12.16 5.051zm0 0" fill-rule="evenodd" fill="#fff" stroke-width="0.221186" stroke-linejoin="round" stroke="#000" stroke-miterlimit="2.613"/><path d="M31.328 13.332l23.66 30.594-2.707 18.754zm0 0M76.363 39.238l-45.695-26.629 39.613 13.523s-2.527-.961-2.406 1.504c.117 4.508 8.488 11.602 8.488 11.602zm0 0" fill-rule="evenodd" fill="rgb(73.333333%,74.509804%,75.294118%)" stroke-width="0.221186" stroke-linejoin="round" stroke="#000" stroke-miterlimit="2.613"/><path d="M71.664 44.227l-16.676-.301-2.707 18.754 7.223-13.402zm0 0" fill-rule="evenodd" fill="rgb(57.647059%,58.431373%,59.607843%)" stroke-width="0.221186" stroke-linejoin="round" stroke="#000" stroke-miterlimit="2.613"/><path d="M26.273 47.051h2.047l.602-1.922.602 1.922h2.047l-1.625 1.203.602 1.922-1.625-1.199-1.629 1.199.605-1.922zm0 0M26.273 41.16h2.047l.602-1.922.602 1.922h2.047l-1.625 1.203.602 1.922-1.625-1.199-1.629 1.199.605-1.922zm0 0M26.273 35.27h2.047l.602-1.922.602 1.922h2.047l-1.625 1.203.602 1.922-1.625-1.199-1.629 1.199.605-1.922zm0 0M26.273 29.379h2.047l.602-1.922.602 1.922h2.047l-1.625 1.203.602 1.926-1.625-1.203-1.629 1.203.605-1.926zm0 0M26.273 23.488h2.047l.602-1.863.602 1.863h2.047l-1.625 1.203.602 1.926-1.625-1.203-1.629 1.203.605-1.926zm0 0" fill-rule="evenodd" fill="#fff" stroke-width="0.221186" stroke-linejoin="round" stroke="#000" stroke-miterlimit="2.613"/><path d="M59.023 8.824v11.18m-4.273-5.59h8.609m-7.047-.902l5.48 1.805m-5.719 2.043l5.898-5.891m-5.898 0l5.898 5.891m-2.047-.238l-1.805-5.473m0 5.473l1.805-5.473m1.867 1.863l-5.48 1.805" stroke-width="0.221186" stroke-linecap="round" stroke-linejoin="round" stroke="rgb(100%,98.431373%,0%)" stroke-miterlimit="2.613" fill="none"/><path d="M14.953 48.977l-1.324 1.621s1.082.84 1.625.301c.543-.543-.301-1.922-.301-1.922zm0 0M11.039 49.516s0 1.504 1.508 2.223c1.504.664 2.707.543 2.707.543s-1.504 1.625-2.59 2.707c-1.082 1.082-2.348 3.723-2.348 3.723s-.902 0-1.504-.84c-.543-.84 0-3.066.543-4.387.602-1.324 1.684-3.969 1.684-3.969zm0 0M85.152 48.977l1.383 1.621s-1.082.84-1.625.301c-.539-.543.242-1.922.242-1.922zm0 0M89.125 49.516s0 1.504-1.504 2.223c-1.504.664-2.711.543-2.711.543s1.508 1.625 2.59 2.707c1.082 1.082 2.289 3.723 2.289 3.723s.961 0 1.504-.84 0-3.066-.543-4.387l-1.625-3.969zm0 0M50.355 80.41s4.695-4.207 8.188-5.59c6.262-2.465 9.691-3.664 14.871-7.273 5.176-3.547 7.523-9.555 7.766-12.563.301-3.004.84-6.551 1.504-7.754.723-1.262 2.105-2.883 4.273-1.379 2.168 1.5.543 4.086.543 4.086l-2.348-2.707s-1.625 1.082-1.625 3.789c0 2.766 2.047 4.688 3.129 5.77 1.086 1.082 2.168.902 1.809 6.012-.422 6.008-5.902 11.359-9.875 14.484-3.914 3.125-14.871 6.852-19.266 8.715-4.336 1.926-9.211 6.73-9.211 6.73s-4.938-4.805-9.332-6.73c-4.336-1.863-15.293-5.59-19.266-8.715-3.914-3.125-9.391-8.477-9.813-14.484-.363-5.109.66-4.93 1.805-6.012 1.082-1.082 3.129-3.004 3.129-5.77 0-2.707-1.684-3.789-1.684-3.789l-2.289 2.707s-1.625-2.586.543-4.086c2.168-1.504 3.551.117 4.215 1.379.723 1.203 1.262 4.75 1.504 7.754.301 3.008 2.59 9.016 7.828 12.563 5.176 3.609 8.609 4.809 14.871 7.273 3.488 1.383 8.188 5.59 8.188 5.59l.238.301zm0 0" fill-rule="evenodd" fill="#fff" stroke-width="0.221186" stroke-linejoin="round" stroke="#000" stroke-miterlimit="2.613"/><path d="M40.602 62.078c.723-.238 1.625-.18 2.168.063l-12.102-49.531zm0 0M68.113 29.02s-16.195-6.613-37.445-16.41l37.324 14.125c-.238.602-.18 1.383.121 2.285zm0 0" fill-rule="evenodd" fill="#fff"/><path d="M38.613 65.684s-.422-2.766 1.926-3.547c.902-.301 1.746-.238 2.648.184l.902 6.188s-2.828-.359-4.395-1.32c-1.02-.723-1.082-1.504-1.082-1.504zm0 0M70.281 26.133s-2.527-.961-2.406 1.504c0 .48.059.902.238 1.383l5.902 2.766s-.664-3.426-2.469-4.93c-.906-.602-1.266-.723-1.266-.723zm0 0" fill-rule="evenodd" fill="rgb(57.647059%,58.431373%,59.607843%)" stroke-width="0.221186" stroke-linejoin="round" stroke="#000" stroke-miterlimit="2.613"/><path d="M14.832 64l.484.961 1.023-1.141zm-.602 1.383l.121-.059.238.422.664-.664-.543-1.02-.961.121.238.48-.117.059-.543-.961.121-.059.238.359 3.555-.543.117.121-2.469 2.703.184.422-.121.059zm0 0M15.977 68.027l-.965-1.383.121-.059.242.422 2.648-1.863-.301-.422.121-.059.961 1.383-.059.059-.301-.359-2.648 1.801.301.422zm0 0M18.203 67.727l.184.184c.18.238.359.359.539.359.184 0 .301-.063.543-.242.18-.18.301-.359.301-.48 0-.18-.121-.301-.301-.539l-.242-.242zm-1.082 1.684l-1.145-1.262.059-.059.363.359 2.348-2.223-.301-.363.059-.059 1.207 1.262c.301.301.48.602.48.781.059.242 0 .48-.242.66-.18.184-.359.242-.539.184-.242-.063-.484-.184-.785-.422v.059c.184.301.242.543.242.781-.059.184-.18.422-.422.664l-.121.121c-.121.117-.18.238-.18.297-.059.063 0 .184.121.242l.059.059.063.063-.121.117-.121-.117-.121-.063c-.238-.238-.359-.48-.359-.66 0-.18.121-.422.301-.602l.242-.238c.18-.242.301-.422.301-.543-.063-.18-.18-.359-.422-.66l-1.203 1.141.359.363zm0 0M21.094 70.672l-.965 1.324.422.301-.059.121-1.387-1.023.063-.121.422.301 1.863-2.582-.359-.301.059-.121 2.289 1.684-.602.84-.063-.059c.121-.301.242-.543.184-.723 0-.18-.184-.359-.422-.539l-.543-.422-.84 1.203.059.059c.18.121.359.18.48.18.18 0 .301-.121.484-.301l.059.063-.781 1.141-.121-.059c.121-.184.18-.363.18-.543-.059-.121-.18-.238-.422-.422zm0 0M22.898 72.477c-.238.422-.359.723-.359.961 0 .18.18.422.422.602.238.121.48.18.723.059.18-.059.422-.301.66-.66l.484-.723c.238-.418.359-.719.359-.961 0-.238-.121-.418-.422-.598-.242-.121-.48-.184-.66-.063-.242.063-.484.301-.723.66zm-.359-.723c.301-.48.66-.719 1.082-.898.422-.121.844-.063 1.266.238.363.242.602.602.664 1.023.059.48-.063.902-.363 1.32-.242.48-.602.723-1.082.902-.422.121-.844.059-1.203-.242-.422-.238-.605-.598-.723-1.02-.063-.48.059-.902.359-1.324zm0 0M26.391 73.918l.242.121c.301.18.48.18.66.18.121-.059.305-.18.422-.359.121-.242.184-.422.184-.602-.063-.121-.184-.238-.422-.359l-.363-.242zm-.48 1.926l-1.504-.844.059-.121.48.242 1.629-2.766-.484-.301.063-.059 1.504.84c.422.242.664.422.723.664.121.18.121.418 0 .66-.121.18-.301.301-.543.359-.18 0-.48-.059-.84-.18v.059c.301.18.418.422.48.66.059.184 0 .422-.18.723l-.121.18c-.063.18-.121.242-.121.363.063.059.121.121.242.18l.059.059h.063l-.063.121c-.063 0-.121 0-.18-.059h-.063c-.301-.18-.48-.363-.539-.543-.121-.18-.063-.418.059-.66l.18-.301c.121-.242.184-.48.121-.602-.059-.18-.242-.301-.602-.539l-.844 1.5.484.242zm0 0M30.004 78.125h-.121l-.059-.359c-.18.059-.301.059-.48 0-.121 0-.305-.059-.484-.18-.359-.18-.602-.539-.723-.961-.059-.484 0-.902.242-1.383.301-.48.602-.781 1.023-.902.48-.18.844-.121 1.266.059.18.121.301.184.359.301.121.121.18.242.242.363l.301-.063h.059l-.48.902-.121-.059c.121-.301.121-.543.063-.781-.121-.242-.242-.422-.484-.543-.301-.121-.48-.18-.723-.059-.18.117-.422.359-.66.781l-.363.719c-.238.422-.359.723-.301.965 0 .238.121.418.422.539.242.18.48.18.723.121.242-.059.48-.18.723-.48l.121.121zm0 0M32.113 77.164l-.785 1.445.602.301c.301.117.543.18.723.117.242-.059.422-.238.664-.539l.121.059-.543.961-2.648-1.32.059-.121.422.242 1.508-2.887-.484-.242.063-.117 2.527 1.32-.359.844-.121-.063c.059-.301.059-.539 0-.719-.063-.121-.242-.305-.484-.422l-.539-.301-.723 1.324.059.059c.242.121.422.121.543.121.18-.063.301-.18.422-.363l.121.063-.664 1.199h-.121c.121-.238.121-.418.121-.598-.063-.121-.242-.242-.48-.363zm0 0M37.23 79.57l.238.117c.301.121.484.121.664.121.121-.059.301-.18.422-.422.121-.238.121-.418.059-.539 0-.18-.18-.301-.422-.422l-.301-.18zm-.363 1.922l-1.566-.723.063-.117.48.238 1.387-2.945-.422-.18.059-.121 1.566.723c.359.242.664.422.781.602.121.238.121.418 0 .723-.117.18-.301.297-.48.359-.242 0-.48 0-.844-.121l-.059.059c.301.184.48.422.543.602.059.242 0 .48-.121.781l-.121.184c-.059.18-.059.238-.059.359 0 .059.059.117.18.18h.121l.059.059-.059.121-.184-.059h-.117c-.301-.184-.484-.363-.543-.48-.059-.184-.059-.422.059-.723l.121-.301c.121-.242.121-.48.063-.602-.063-.121-.242-.301-.602-.48l-.727 1.563.484.18zm0 0M40.238 81.133l-.66 1.441.602.301c.301.121.543.121.723.059.238-.059.422-.238.602-.602l.121.063-.484 1.02-2.707-1.199.059-.121.484.242 1.324-2.945-.484-.242.063-.121 2.59 1.203-.363.84-.121-.059c.063-.301.063-.539 0-.66-.059-.18-.238-.301-.48-.422l-.602-.301-.602 1.383h.059c.242.121.422.18.543.121.121-.059.238-.18.359-.359h.121l-.543 1.32-.117-.059c.059-.242.059-.422 0-.543-.063-.117-.184-.238-.422-.359zm0 0M41.625 83.715l-.121-.059.422-.902h.121c-.063.359 0 .602.059.781.059.242.242.359.422.48.238.063.422.121.66 0 .184-.059.301-.18.422-.359.063-.18.063-.301 0-.422-.059-.117-.18-.297-.359-.418l-.242-.242c-.301-.18-.422-.418-.48-.598-.121-.242-.063-.422.059-.723.121-.242.242-.422.484-.543.238-.059.48-.059.723.063.18.059.301.117.359.18.121.059.18.18.242.301l.301-.121.059.059-.422.902-.117-.059c.059-.301.059-.543 0-.723-.121-.238-.242-.359-.422-.418-.184-.121-.363-.121-.543-.063-.18.063-.301.18-.363.301-.059.121-.059.242 0 .359.063.121.184.242.363.363l.301.238c.242.242.422.422.48.66.063.184.063.48-.059.723-.18.301-.359.543-.602.66-.301.121-.543.121-.844 0l-.359-.18-.301-.359zm0 0M45.477 83.355l-.543 1.504.543.238c.363.121.602.121.781.063.242-.121.422-.301.605-.664l.117.063-.48 1.082-2.707-1.082v-.121l.48.18 1.145-3.004-.422-.18v-.121l2.648 1.023-.301.898-.059-.059c0-.301 0-.543-.063-.723-.117-.117-.301-.238-.539-.359l-.605-.242-.539 1.383.059.063c.242.059.422.059.543.059.121-.059.238-.18.359-.422l.121.063-.48 1.262h-.121c.059-.242.059-.422 0-.543-.059-.117-.242-.238-.48-.359zm0 0M47.887 84.797l.961.301-.059-1.5h-.063zm.48 1.383l.059-.117.484.18-.063-.965-1.082-.359-.543.781.48.18v.121l-1.082-.301.059-.121.363.121 2.168-2.945.18.059.18 3.609.363.117v.121zm0 0M51.438 84.258l.238-.121c.305-.059.484-.18.543-.359.063-.121.063-.301 0-.543-.121-.301-.18-.418-.301-.48-.121-.059-.359-.059-.602 0l-.359.121zm1.082 1.621l-1.563.602-.063-.18.484-.121-1.086-3.066-.48.184v-.121l1.625-.602c.422-.121.723-.18.965-.121.238.063.359.242.48.484.059.238.059.418-.059.598-.121.184-.363.363-.664.543.363 0 .602 0 .785.121.18.117.359.297.48.598l.059.242c.063.121.121.238.184.301.059 0 .18 0 .301-.063h.059l.059-.059.063.121c-.063.059-.121.121-.184.121l-.059.059c-.359.121-.602.121-.781.059-.184-.059-.301-.238-.422-.539l-.121-.301c-.121-.242-.242-.422-.359-.48-.184-.059-.422 0-.785.117l.543 1.566.48-.18zm0 0M56.918 84.258l-.063.059-.301-.117c-.059.117-.18.238-.301.359l-.422.238c-.422.18-.844.121-1.262-.059-.363-.242-.664-.602-.906-1.082-.18-.48-.18-.902-.059-1.383.18-.422.422-.723.902-.902l.422-.117.422.059.121-.242.059-.059.422.961-.121.059c-.18-.297-.422-.48-.602-.539-.242-.059-.48-.059-.723.059-.242.063-.422.242-.48.48-.063.242 0 .543.18.965l.301.84c.18.363.359.66.543.781.238.121.48.18.723.063.301-.121.48-.305.602-.543.059-.242.121-.48.059-.844l.121-.059zm0 0M58.723 83.477l-1.566.723-.059-.121.48-.242-1.324-2.945-.422.242-.059-.121 1.504-.723.059.121-.48.242.602 1.32 1.324-.539-.602-1.383-.48.238-.063-.117 1.566-.723.063.18-.484.18 1.324 2.945.422-.238.063.117-1.566.723v-.121l.48-.238-.66-1.445-1.324.602.66 1.445.48-.242zm0 0M65.105 80.531l-2.59 1.262-.063-.121.484-.238-1.387-2.887-.48.242-.059-.121 1.504-.723.059.121-.422.18 1.387 2.945.48-.238c.301-.18.484-.359.602-.543.063-.238 0-.539-.117-.898l.117-.063zm0 0M65.344 79.09l.965-.422-1.086-1.082-.059.059zm1.324.719l-.059-.117.48-.242-.66-.66-1.023.48.117.961.484-.242.059.121-1.023.48-.059-.117.359-.184-.422-3.605.184-.059 2.586 2.523.422-.18v.121zm0 0M68.293 77.047l.727 1.441.418-.18c.242-.121.422-.301.422-.422.063-.18 0-.359-.121-.66-.117-.242-.301-.422-.48-.48-.18 0-.422 0-.66.18zm-.059-.121l.242-.121c.301-.121.418-.242.48-.422.063-.18.059-.359-.059-.602-.121-.238-.301-.418-.422-.418-.121-.063-.301-.063-.543.059l-.359.18zm-.18 2.223l-.063-.121.422-.238-1.445-2.887-.418.242-.121-.121 1.563-.781c.422-.18.723-.301.965-.242.242 0 .422.184.543.422.059.18.121.359 0 .539-.063.184-.242.363-.484.602v.063c.363-.121.605-.18.844-.121.242.059.422.18.543.422.121.238.121.539 0 .781-.18.238-.422.48-.844.66zm0 0M71.004 76.141c.242.422.48.664.66.723.242.121.484.121.723-.059.242-.121.422-.301.422-.543 0-.238-.059-.539-.301-.961l-.422-.719c-.18-.422-.418-.664-.602-.781-.238-.121-.48-.063-.723.059-.301.18-.422.359-.422.602-.059.238.063.539.242.898zm-.844 0c-.238-.48-.301-.898-.238-1.379.117-.422.359-.781.781-1.023.359-.18.781-.242 1.203-.059.48.117.785.418 1.086.898.238.484.301.902.18 1.383-.059.422-.301.785-.723.965-.422.238-.844.301-1.266.117-.422-.18-.781-.48-1.023-.902zm0 0M74.016 73.738l.238-.121c.242-.117.422-.301.484-.418.059-.18 0-.363-.121-.602-.121-.242-.301-.359-.422-.422-.121 0-.301 0-.543.184l-.359.18zm1.383 1.441l-1.445.844-.059-.121.422-.238-1.566-2.766-.48.238-.063-.117 1.504-.844c.363-.238.723-.359.906-.359.238 0 .418.18.602.422.117.18.117.359.059.598-.121.184-.301.363-.602.602l.059.063c.301-.121.602-.121.785-.063.238.063.422.242.543.543l.117.18.242.242c.059 0 .18 0 .301-.063l.059-.059.063-.059.059.117-.121.121-.117.059c-.301.18-.543.242-.723.242-.184-.063-.301-.18-.484-.422l-.18-.301c-.18-.238-.301-.359-.48-.418-.184 0-.422.059-.723.238l.84 1.441.422-.238zm0 0M76.965 72.836l.844-.602-1.207-.84h-.059zm1.383.48l-.059-.059.422-.301-.785-.602-.961.664.238.898.484-.301.059.121-.902.602-.059-.063.301-.238-.902-3.547.117-.117 2.949 2.16.363-.238.059.121zm0 0M79.734 67.848l.723.781-.121.121c-.301-.242-.543-.422-.723-.422-.18 0-.359.063-.602.242l-.059.059h-.063l2.109 2.527.418-.363.063.063-1.387 1.199-.059-.117.422-.363-2.047-2.465-.184.121c-.18.121-.301.359-.301.543 0 .18.063.418.301.781l-.117.059-.664-.84zm0 0M81.66 68.93c.301.301.602.422.844.48.238 0 .48-.059.66-.301.18-.238.242-.48.242-.66-.063-.242-.301-.539-.602-.84l-.664-.543c-.301-.301-.602-.48-.84-.48-.242-.059-.422.059-.664.242-.18.238-.242.48-.18.719 0 .18.238.48.539.781zm-.844.242c-.359-.363-.602-.781-.66-1.203-.063-.48.059-.902.422-1.203.301-.359.66-.539 1.141-.539.422.059.844.238 1.266.539.359.359.602.781.66 1.262.063.422-.059.844-.359 1.145-.359.359-.723.539-1.203.539-.422 0-.844-.18-1.266-.539zm0 0M83.465 65.746l.184-.242c.18-.238.238-.422.238-.602-.059-.18-.117-.301-.359-.48-.242-.121-.422-.18-.543-.18-.121 0-.301.121-.422.359l-.238.301zm1.867.66l-.961 1.441-.063-.121.242-.418-2.59-1.805-.301.422-.121-.121.965-1.383c.301-.359.48-.602.723-.723.242-.059.422 0 .66.121.184.121.301.301.301.543 0 .18-.059.48-.238.84h.059c.242-.242.48-.359.723-.422.18 0 .422.063.723.242l.18.121c.121.117.242.18.301.117.063 0 .184-.059.242-.117v-.121l.059-.059.121.059-.059.18-.063.121c-.18.238-.418.422-.602.48-.117.059-.359 0-.602-.18l-.301-.18c-.242-.121-.422-.184-.602-.121-.121 0-.301.18-.543.48l1.387.961.301-.422zm0 0M87.199 62.559l.121.063-.723 1.621-.121-.059.242-.484-1.324-.598-2.051.301-.18.359-.121-.063.664-1.559.121.059-.18.48 1.684-.18v-.063l-1.023-1.32-.18.48-.121-.059.422-1.023.121.059-.121.363 1.145 1.5 1.383.664zm0 0" fill-rule="evenodd"/></g></svg>