<?xml version="1.0" encoding="utf-8"?>
<!-- Generated by IcoMoon.io -->
<!DOCTYPE svg PUBLIC "-//W3C//DTD SVG 1.1//EN" "http://www.w3.org/Graphics/SVG/1.1/DTD/svg11.dtd">
<svg version="1.1" xmlns="http://www.w3.org/2000/svg" xmlns:xlink="http://www.w3.org/1999/xlink" width="512" height="512" viewBox="0 0 512 512">
<g>
</g>
	<path d="M378.245 163.482l-17.081 80.773 84.849-0.676c0 0 38.308-5.509 43.172-34.908 0 0 7.486-34.243-28.139-43.817l-82.8-1.372z" fill="#000000" />
	<path d="M354.949 290.734l-17.111 80.814 84.859-0.717c0 0 38.339-5.468 43.12-34.867 0 0 7.526-34.263-28.017-43.837l-82.852-1.392z" fill="#000000" />
	<path d="M61.194 90.757l-17.090 80.763 84.889-0.666c0 0 38.318-5.478 43.1-34.918 0 0 7.547-34.222-28.078-43.806l-82.821-1.372z" fill="#000000" />
	<path d="M39.291 213.924l-17.142 80.753 84.869-0.697c0 0 38.38-5.458 43.131-34.887 0 0 7.526-34.253-28.047-43.817l-82.811-1.351z" fill="#000000" />
	<path d="M226.816 91.31l-17.121 80.763 84.88-0.676c0 0 38.339-5.478 43.141-34.908 0 0 7.506-34.243-28.099-43.806l-82.8-1.372z" fill="#000000" />
	<path d="M204.882 214.436l-17.142 80.814 84.91-0.717c0 0 38.308-5.478 43.111-34.867 0 0 7.557-34.243-28.017-43.827l-82.862-1.403z" fill="#000000" />
	<path d="M181.218 340.45l-17.131 80.793 84.88-0.686c0 0 38.359-5.488 43.131-34.928 0 0 7.547-34.192-28.027-43.807l-82.852-1.372z" fill="#000000" />
</svg>
