<svg xmlns="http://www.w3.org/2000/svg" width="100pt" height="100pt" viewBox="0 0 100 100"><g fill="#c22338" fill-rule="evenodd"><path d="M36.545 46.754c-.027 7.637 6.055 13.625 13.324 13.625 7.348 0 13.324-5.988 13.324-13.625v-34.855h-6.648v34.855c0 3.805-2.988 6.715-6.676 6.715-3.555 0-6.676-3.02-6.676-6.715v-20.953h-6.648zm0 0"/><path d="M16.545 11.898h-6.414v6.938h6.414zm0 0"/><path d="M23.193 18.836h-6.648v6.938h6.648zm0 0"/><path d="M29.869 11.898h-6.676v6.938h6.676zm0 0"/><path d="M36.545 18.836v-6.938h6.648v6.938zm0 0"/><path d="M29.869 25.773v-6.938h6.676v6.938zm0 0"/><path d="M89.869 11.926v34.828c0 22.855-17.93 41.348-39.973 41.348-20.48 0-37.484-15.996-39.766-36.617v-25.711h6.414v20.98c0 19.051 14.992 34.41 33.352 34.41 18.355 0 33.297-15.359 33.297-34.41v-34.855zm0 0"/><path d="M69.869 11.898v34.855c0 11.441-8.992 20.563-20 20.563-11.039 0-20-9.121-20-20.563v-21.008h-6.676v21.008c0 15.246 11.977 27.473 26.676 27.473 14.695 0 26.648-12.227 26.648-27.473v-34.828zm0 0"/></g></svg>