<?xml version="1.0" encoding="UTF-8" standalone="no"?>
<!-- Created with Inkscape (http://www.inkscape.org/) -->

<svg
   xmlns:dc="http://purl.org/dc/elements/1.1/"
   xmlns:cc="http://creativecommons.org/ns#"
   xmlns:rdf="http://www.w3.org/1999/02/22-rdf-syntax-ns#"
   xmlns:svg="http://www.w3.org/2000/svg"
   xmlns="http://www.w3.org/2000/svg"
   xmlns:sodipodi="http://sodipodi.sourceforge.net/DTD/sodipodi-0.dtd"
   xmlns:inkscape="http://www.inkscape.org/namespaces/inkscape"
   version="1.0"
   width="132.25771"
   height="171.74626"
   id="svg2"
   xml:space="preserve"
   inkscape:version="0.48.5 r10040"
   sodipodi:docname="Carleton.svg"><metadata
     id="metadata63"><rdf:RDF><cc:Work
         rdf:about=""><dc:format>image/svg+xml</dc:format><dc:type
           rdf:resource="http://purl.org/dc/dcmitype/StillImage" /></cc:Work></rdf:RDF></metadata><sodipodi:namedview
     pagecolor="#ffffff"
     bordercolor="#666666"
     borderopacity="1"
     objecttolerance="10"
     gridtolerance="10"
     guidetolerance="10"
     inkscape:pageopacity="0"
     inkscape:pageshadow="2"
     inkscape:window-width="1858"
     inkscape:window-height="1057"
     id="namedview61"
     showgrid="false"
     fit-margin-top="0"
     fit-margin-left="0"
     fit-margin-right="0"
     fit-margin-bottom="0"
     inkscape:zoom="0.40857143"
     inkscape:cx="345.65531"
     inkscape:cy="38.472567"
     inkscape:window-x="54"
     inkscape:window-y="-8"
     inkscape:window-maximized="1"
     inkscape:current-layer="svg2" /><defs
     id="defs5" /><g
     transform="matrix(1.25,0,0,-1.25,-12.075324,339.39803)"
     id="g11"><path
       d="m 62.561288,134.12141 5.574961,1.86365 c 15.223532,7.06241 25.48683,14.48781 34.745281,26.48681 8.77029,11.62418 12.14086,23.49592 12.58244,39.06576 0,6.9e-4 -0.20862,50.28104 -0.29972,62.53455 -5.39694,3.08546 -37.862728,7.44974 -52.609221,7.31762"
       id="path951"
       style="fill:#ffffff;fill-opacity:1;fill-rule:nonzero;stroke:none"
       inkscape:connector-curvature="0" /><path
       d="M 62.555029,271.3898 C 46.771011,271.24863 14.967932,266.32386 9.8595786,264.40597 9.6648687,240.48656 9.6627825,201.53763 9.6627825,201.53763 10.041771,186.67222 13.483269,174.08144 22.243128,162.47187 c 9.2668,-12.0136 20.306155,-19.56626 34.777273,-26.49167 0.131429,-0.0612 5.540887,-1.85879 5.540887,-1.85879"
       id="path953"
       style="fill:#ffffff;fill-opacity:1;fill-rule:nonzero;stroke:none"
       inkscape:connector-curvature="0" /><path
       d="m 75.458732,179.54584 c -4.218251,0.23921 -8.554718,-0.0389 -12.035158,-1.9019 l -0.126561,27.73295 c 2.301749,1.65016 6.29956,2.23429 10.938524,1.95057 7.084658,-0.59873 13.92732,-2.56808 20.438975,-5.04924 l 6.376748,-28.18704 c -8.476138,2.89214 -16.574679,4.8747 -25.592528,5.45466 z m -13.724961,-1.9019 c -3.474181,1.86296 -7.807172,2.14111 -12.029595,1.9019 -9.017154,-0.57996 -17.126125,-2.56252 -25.615477,-5.45466 l 6.496357,28.18704 c 6.519304,2.48116 13.370311,4.45051 20.457055,5.04924 4.640354,0.28372 8.634689,-0.30041 10.930875,-1.95057 l -0.239215,-27.73295 z m 35.830097,23.45559 -1.331677,0.43392 -0.289283,1.39218 -2.287841,0.89358 c -6.229326,2.16615 -12.615811,3.91158 -19.209522,4.54022 -4.246762,0.4061 -8.546373,0.0876 -11.80985,-2.01317 -3.253046,2.10078 -7.549876,2.41927 -11.797334,2.01317 -6.596493,-0.62864 -12.992017,-2.37407 -19.231078,-4.54022 l -2.289232,-0.89358 -0.295542,-1.39218 -1.335154,-0.43392 -7.458779,-31.15915 c 4.206429,0.77258 12.874496,2.03124 17.676181,2.53054 5.974117,0.66688 11.065085,0.91861 17.811087,0.69122 -0.0306,-0.27121 -0.108481,-0.49582 0.05841,-0.76494 0.782317,-0.74824 2.356685,-0.67731 3.61465,-0.78996 1.308729,-0.0508 1.889382,-0.0702 3.175858,-0.0828 1.28578,-0.007 1.870605,0.032 3.175857,0.0828 1.257965,0.11265 2.835115,0.0417 3.620213,0.78996 0.16759,0.26912 0.0911,0.49373 0.0612,0.76494 6.748088,0.22739 11.838361,-0.0243 17.808306,-0.69122 4.799598,-0.4993 13.460712,-1.75796 17.667142,-2.53054 l -7.33361,31.15915"
       id="path955"
       style="fill:#231f20;fill-opacity:1;fill-rule:nonzero;stroke:none"
       inkscape:connector-curvature="0" /><path
       d="m 64.582794,271.44195 7.403843,-14.88348 0.02086,-0.0508 c 0.02851,-0.0633 0.127952,-0.26285 0.392201,-0.72459 0.248255,0.0953 0.487471,0.19123 0.725295,0.28928 0.334484,0.18915 12.40302,7.05476 12.40302,7.05476 0,0 -5.349654,-26.26915 -5.870503,-28.82889 2.371288,2.49437 11.972572,12.59634 11.972572,12.59634 0,0 4.08404,-7.76406 5.038814,-9.58042 0.164808,0.0271 1.313596,0.21974 1.313596,0.21974 l -0.652278,-0.10848 14.715206,4.04579 -4.68,-16.51557 c 0,0 -0.064,-0.10917 -0.0876,-0.14047 l 0.0118,-0.005 c 0,0 -0.0542,-0.16481 -0.0612,-0.19124 0.004,0.006 0.0452,0.0647 0.0452,0.0647 0,0 -0.38594,-1.16547 -0.56048,-1.68493 -0.0688,-0.21418 -0.23087,-0.73851 -0.27607,-0.87342 0.89357,-0.46034 7.53457,-3.88724 7.53457,-3.88724 0,0 -8.59574,-7.61733 -15.654674,-13.87586 0.06884,-0.32892 0.1509,-0.72043 0.169675,-0.80944 0.184975,-0.0612 1.289258,-0.4228 1.289258,-0.4228 l 7.849591,-33.3684 c 5.33018,9.57346 7.93234,20.2839 7.83847,31.77596 0,0 -0.0396,46.50437 -0.19611,62.86834 -14.99127,4.30935 -34.660444,6.56381 -50.685068,7.03598"
       id="path957"
       style="fill:#231f20;fill-opacity:1;fill-rule:nonzero;stroke:none"
       inkscape:connector-curvature="0" /><path
       d="m 62.561288,134.12141 c 1.387308,0.50416 3.353182,0.99719 4.761352,1.59454 13.74026,5.71056 25.979167,14.33621 35.55889,26.75592 1.12932,1.49857 2.17867,3.03121 3.15709,4.59585 l -1.61471,0.29554 c -4.32812,0.79692 -12.978105,2.0368 -17.485639,2.50619 -0.493034,0.0536 -0.975636,0.10501 -1.452675,0.1516 -0.09944,0.0118 -0.196796,0.0243 -0.295542,0.0313 -0.481907,0.0494 -0.960337,0.096 -1.429727,0.13699 -0.007,0 -0.01113,0 -0.01878,0 -0.48608,0.0445 -0.963814,0.0834 -1.439463,0.12031 -0.03825,0.002 -0.07858,0.007 -0.11474,0.01 -0.488861,0.0362 -0.972158,0.0682 -1.451979,0.0974 -3.125789,0.19818 -6.127799,0.24964 -9.475418,0.17384 -0.04172,-0.0417 -0.0911,-0.0883 -0.0911,-0.0883 -1.332372,-1.27118 -3.184898,-1.37827 -4.538827,-1.45893 l -0.752415,-0.0494 -0.766322,-0.0341 -2.566694,-0.0536 -3.257218,0.0828 -0.786489,0.0542 c -1.353929,0.0807 -3.20715,0.18775 -4.539522,1.4638 0,0 -0.0459,0.0466 -0.08553,0.0834 -2.840678,0.0633 -5.435188,0.0341 -8.069334,-0.0932 -0.604992,-0.0292 -1.211374,-0.0654 -1.824015,-0.105 -0.0097,0 -0.02225,-0.005 -0.03407,-0.005 -0.296933,-0.0195 -0.592475,-0.0389 -0.893579,-0.0612 -0.01947,0 -0.03894,-0.005 -0.05911,-0.005 -0.290674,-0.0216 -0.579957,-0.0459 -0.874804,-0.0682 -0.0452,-0.003 -0.09249,-0.008 -0.140469,-0.0125 -0.268421,-0.0243 -0.535452,-0.0466 -0.808741,-0.0709 -0.08762,-0.01 -0.17663,-0.0167 -0.261468,-0.0264 -0.236433,-0.0195 -0.471476,-0.0417 -0.709996,-0.0661 -0.152291,-0.0146 -0.305972,-0.0299 -0.459654,-0.0445 -0.177325,-0.0195 -0.356736,-0.0362 -0.536843,-0.0556 -0.337961,-0.0369 -0.680789,-0.0737 -1.02779,-0.11057 -4.497103,-0.46661 -13.149872,-1.70858 -17.473127,-2.50341 l -1.617483,-0.29554 c 0.976332,-1.56464 2.02846,-3.09728 3.157778,-4.59585 9.580422,-12.41971 21.820025,-21.04536 35.556112,-26.75592 1.410256,-0.59735 3.376826,-1.09038 4.762048,-1.59454"
       id="path959"
       style="fill:#231f20;fill-opacity:1;fill-rule:nonzero;stroke:none"
       inkscape:connector-curvature="0" /><path
       d="M 60.583592,271.51706 C 44.554795,271.59007 24.862671,268.7188 9.8595786,264.40597 9.7003337,248.042 9.6627825,201.53763 9.6627825,201.53763 9.5675138,190.04557 12.169672,179.33792 17.494293,169.76445 l 7.987973,33.37049 c 0,0 1.121668,0.36439 1.29343,0.42071 0.01739,0.0744 0.08623,0.39846 0.149509,0.70235 -7.079791,6.27731 -15.769415,13.98017 -15.769415,13.98017 0,0 6.640303,3.4269 7.532491,3.88724 -0.04242,0.13491 -0.22183,0.70027 -0.311535,0.98746 -0.154378,0.46592 -0.321272,0.96938 -0.42419,1.27952 -0.0028,0.005 -0.04451,0.0542 -0.04451,0.0542 l -4.825328,17.0246 14.715895,-4.04579 -0.63837,0.10431 c 0.127257,-0.0216 1.141139,-0.18915 1.299688,-0.21696 0.956165,1.81775 5.038119,9.58181 5.038119,9.58181 0,0 9.59433,-10.09432 11.96979,-12.59286 -0.525021,2.566 -5.871198,28.82332 -5.871198,28.82332 0,0 12.07549,-6.86352 12.406497,-7.05267 0.238519,-0.098 0.477039,-0.19402 0.723208,-0.28928 0.275375,0.48121 0.367863,0.67035 0.388029,0.71555 l 0.02503,0.0556 6.58189,13.22706 0.862287,1.7357"
       id="path961"
       style="fill:#231f20;fill-opacity:1;fill-rule:nonzero;stroke:none"
       inkscape:connector-curvature="0" /><path
       d="m 54.603912,252.65662 c 0.334483,0.47982 0.266335,0.28024 0,0 z m 15.921706,-0.001 c -0.267726,0.28094 -0.337266,0.48399 0,0 z M 21.976097,221.60457 c -0.05354,-0.78232 -0.786489,-1.66825 -1.206506,-1.98048 l -4.038839,-2.08201 13.09424,-11.60818 0.87689,0.34283 0.04729,0.0153 c 7.536664,2.61885 13.840397,4.10351 19.840938,4.67443 4.932419,0.47078 8.889898,-0.0695 12.046284,-1.6293 3.165427,1.55976 7.124991,2.10008 12.058801,1.6293 5.994978,-0.57161 12.293843,-2.05558 19.820076,-4.67443 l 0.04659,-0.0167 0.780926,-0.30458 13.051823,11.57133 -4.03884,2.08201 c -0.41654,0.31223 -1.15227,1.19816 -1.20442,1.98048 -0.016,0.23295 -0.0424,0.20861 -0.0654,0.13907 0.004,0.0209 0.008,0.0403 0.0111,0.0675 0.0758,0.46035 0,0.36438 0.4214,1.614 -0.0341,-0.0334 0.76911,2.37825 0.78997,2.39702 l 3.14387,11.09082 -9.279316,-2.55209 c -0.508331,-0.0299 -0.977026,-0.20862 -1.477013,-0.27886 -0.872022,-0.12378 -1.570196,-0.24199 -2.09035,0.3324 l -3.723827,7.08118 -10.593608,-11.14366 -0.839339,-0.83378 c -1.784377,-1.35393 -4.301698,0.10501 -3.200892,3.95818 l 4.772479,23.43264 -6.499834,-3.69671 c -0.875499,-0.36439 -1.63,-0.6634 -2.832333,-1.041 -0.39846,-0.12517 -0.794138,0.13143 -1.061864,0.38316 -0.463132,0.75728 -1.243362,2.04932 -1.511088,2.63762 l -6.550597,13.1763 -6.556161,-13.1763 c -0.264944,-0.5883 -1.043784,-1.88034 -1.506915,-2.63693 -0.267031,-0.25242 -0.665491,-0.50902 -1.06256,-0.38385 -1.205115,0.3776 -1.955443,0.67661 -2.832333,1.041 l -6.50192,3.69671 4.771088,-23.43264 c 1.100806,-3.85317 -1.416515,-5.31211 -3.198805,-3.95818 l -0.837948,0.83378 -10.592218,11.14366 -3.723827,-7.08118 c -0.524326,-0.57439 -1.225282,-0.45618 -2.091045,-0.3324 -0.499292,0.0702 -0.966596,0.24895 -1.474232,0.27886 l -9.280708,2.55209 3.142478,-11.09082 c 0.02156,-0.0188 0.825431,-2.4304 0.788575,-2.39702 0.420017,-1.24962 0.34422,-1.15365 0.420017,-1.614 0.0028,-0.0209 0.0049,-0.0348 0.0083,-0.0536 -0.02156,0.0584 -0.04798,0.0647 -0.0605,-0.15298"
       id="path963"
       style="fill:#e32739;fill-opacity:1;fill-rule:nonzero;stroke:none"
       inkscape:connector-curvature="0" /><path
       d="m 58.164321,198.4925 c -3.705746,1.57089 -8.006749,1.0876 -11.921113,0.40959 -4.623665,-0.80109 -6.772427,-1.38383 -11.864786,-3.08824 l 0.285806,1.2677 c 0,0 6.4143,2.49855 15.076109,3.51104 0,0 4.97901,0.62794 8.423984,-0.89706 l 0,-1.20303"
       id="path965"
       style="fill:#231f20;fill-opacity:1;fill-rule:nonzero;stroke:none"
       inkscape:connector-curvature="0" /><path
       d="m 58.164321,192.88555 c -3.705746,1.5695 -8.006749,1.08621 -11.921113,0.40959 -4.623665,-0.80179 -7.937905,-1.31221 -13.181164,-3.05903 l 0.285111,1.26909 c 0,0 7.731373,2.46656 16.393182,3.48044 0,0 4.97901,0.62794 8.423984,-0.89775 l 0,-1.20234"
       id="path967"
       style="fill:#231f20;fill-opacity:1;fill-rule:nonzero;stroke:none"
       inkscape:connector-curvature="0" /><path
       d="m 58.164321,187.20281 c -3.705746,1.57158 -8.006749,1.08759 -11.921113,0.41028 -4.623665,-0.79901 -9.321041,-2.03889 -14.632448,-3.81632 l 0.285806,1.26909 c 0,0 9.181962,3.22454 17.843771,4.23912 0,0 4.97901,0.62863 8.423984,-0.89706 l 0,-1.20511"
       id="path969"
       style="fill:#231f20;fill-opacity:1;fill-rule:nonzero;stroke:none"
       inkscape:connector-curvature="0" /><path
       d="m 66.828911,198.4925 c 3.705747,1.57089 8.006749,1.0876 11.920418,0.40959 4.62436,-0.80109 6.772427,-1.38383 11.865482,-3.08824 l -0.285807,1.2677 c 0,0 -6.4143,2.49855 -15.076108,3.51104 0,0 -4.97901,0.62794 -8.423985,-0.89706 l 0,-1.20303"
       id="path971"
       style="fill:#231f20;fill-opacity:1;fill-rule:nonzero;stroke:none"
       inkscape:connector-curvature="0" /><path
       d="m 66.828911,192.88555 c 3.705747,1.5695 8.006749,1.08621 11.920418,0.40959 4.62436,-0.80179 7.9386,-1.31221 13.182555,-3.05903 l -0.287197,1.26909 c 0,0 -7.729983,2.46656 -16.391791,3.48044 0,0 -4.97901,0.62794 -8.423985,-0.89775 l 0,-1.20234"
       id="path973"
       style="fill:#231f20;fill-opacity:1;fill-rule:nonzero;stroke:none"
       inkscape:connector-curvature="0" /><path
       d="m 66.828911,187.20281 c 3.705747,1.57158 8.006749,1.08759 11.920418,0.41028 4.62436,-0.79901 9.323127,-2.03889 14.631753,-3.81632 l -0.28372,1.26909 c 0,0 -9.182658,3.22454 -17.844466,4.23912 0,0 -4.97901,0.62863 -8.423985,-0.89706 l 0,-1.20511"
       id="path975"
       style="fill:#231f20;fill-opacity:1;fill-rule:nonzero;stroke:none"
       inkscape:connector-curvature="0" /></g></svg>