<svg xmlns="http://www.w3.org/2000/svg" width="100pt" height="100pt" viewBox="0 0 100 100"><defs><clipPath id="a"><path d="M10.043 19h28.957v29h-28.957zm0 0"/></clipPath></defs><g><path d="M0 87.473v-1.613l.418-.242c1.078-.633 2.512-1.043 4.109-1.184l.793-.07.754.07c1.406.133 2.93.527 4.227 1.098l.648.285.078-.09.074-.094h.887l.082-.078.078-.082v-.652l.297.078.133-.125c.074-.07.211-.133.301-.148l.164-.02.09-.184.086-.184h.145c.082 0 .266-.043.406-.094l.262-.09.055-.141.051-.141h.137c.074 0 .195-.035.266-.082l.133-.082.133.082.129.082h.797l.141-.266h.137c.074 0 .211.059.305.133l.168.133h.504l.086.266h.52l.141-.266h.57l.297-.344.211.043c.117.027.434.066.711.09l.496.047.168.305c.09.168.203.355.254.414l.094.109.371-.043c.207-.023.445-.07.527-.102l.152-.055-.039-.5-.148-.02-.152-.02v-.262l.172-.066.168-.063-.02-.281-.02-.285-.145-.02c-.258-.039-.254-.238.012-.387l.133-.07.02-.277.02-.273-.168-.066c-.203-.078-.219-.234-.035-.336l.137-.07-.047-.398.078-.273 1.715-.078 1.832.047v-4.652l.082-.07c.047-.035.34-.102.648-.145l.566-.078 1.855.023 1.859.023.012-.598.008-.598.688-.02c.816-.023.934 0 1.02.195.035.086.141.168.234.188l.164.039.047.32c.023.176.059.359.078.406l.035.09.715.035c1.273.066 1.91.109 2.055.141l.145.031-.012.211-.008.211.164.039.168.043.02.199.02.203-.102.086c-.145.117-.129.254.027.301l.133.043v.387l-.133.07c-.07.039-.133.113-.133.164 0 .055.063.129.133.168l.133.07v.152c0 .086-.059.207-.133.273-.07.066-.133.16-.133.207 0 .051.063.121.133.16l.133.07v.152c0 .086-.059.207-.133.277-.18.16-.137.254.141.297l.227.031.039.953-.121.035c-.066.023-.148.105-.184.191l-.066.148-.152.023-.156.02.023.145.02.145.188.02c.32.039.289.445-.039.492l-.148.02-.02.145-.023.145.18.02c.102.012.215.074.254.141l.074.113-.074.117c-.039.063-.145.129-.23.152l-.16.035v.258l.391.07.059.23c.074.281.141.332.449.332.129 0 .266.031.301.063l.063.066 1.16.02c.641.012 1.215.043 1.277.074l.113.055.02-1.879.02-1.883 1.051-.02 1.055-.016.578-.594h3.098l.293.184c.164.105.371.297.461.43l.164.242.109-.098.109-.102 1.445.039.031.367.035.363.148.023.148.02v.246l-.148.023-.148.02v.395l.164.082c.094.047.168.121.168.164 0 .047-.074.102-.168.121l-.164.039-.023.148-.02.148.207.074.207.07-.02.105c-.012.059-.094.125-.188.145l-.164.039-.023.18-.02.176.168.043c.09.023.18.082.199.133l.035.094h1.137l.078-.398h2.25l.129-.066.129-.07v-.637l-.133-.121c-.168-.152-.168-.332 0-.547.074-.094.133-.25.133-.348v-.18l-.133-.121c-.176-.16-.168-.27.035-.445l.164-.145v-.352l-.133-.121c-.074-.066-.133-.188-.133-.273v-.152l.133-.07.133-.074v-.402l-.133-.172c-.168-.211-.168-.297 0-.449l.133-.117v-.43l-.102-.082c-.117-.102-.129-.426-.016-.516.047-.035.52-.262 1.051-.504l.969-.441h2.879v-.063c0-.121.438-.203 1.086-.203.371-.004.703-.023.746-.051l.074-.051.047-2.852.047-2.855.078-.051c.102-.063.984-.063 1.078 0 .152.102.25.543.289 1.313l.039.793h1.594l.039-.75.09-.078.094-.074 1.316.035c.723.016 1.586.055 1.914.086l.598.055.945.516c1.348.738 1.332.73 1.371.875.02.074.035.395.039.711v.578l.164.18c.191.203.199.262.066.492-.129.223-.121.48.016.719l.113.199-.113.238c-.141.297-.145.527-.016.66.125.125.125.422 0 .641-.129.227-.121.375.035.531.156.156.172.387.035.566-.055.07-.098.223-.102.336v.203l.133.121c.156.141.168.293.035.469-.055.07-.098.25-.102.395v.266l.133.082c.156.098.172.273.035.453-.055.07-.098.25-.102.402v.273l.098.082c.055.047.102.121.102.168 0 .148.176.164 1.629.164h1.422l.016 1.145.02 1.148.762.02.758.016.313-.336h.508l.082-.098c.047-.055.152-.102.234-.102h.148l.094.133.09.137.996.063.992.059.313-.203.117.105c.063.059.18.105.262.105h.145l.059.156.063.16.219.043.438.082.215.039v.086c0 .047.047.137.105.191l.105.105h.543c.297 0 .578-.023.621-.055l.078-.051.039-.992h.797l.02.484.02.48h.328v-.648l.09-.074c.129-.109.176-.023.176.332 0 .172.031.336.066.355l.066.043v-.723l.102-.086.102-.082.063.059c.031.031.066.223.078.426l.02.363.113.02.113.023.02-.223.02-.219 1.559-.031 1.559-.035.039-.164.039-.168.719-.02.719-.016.246.168.242.168h.48l.02-.152.023-.148.516-.008c.285 0 .539-.027.559-.051.023-.023.266-.043.535-.043h.492l.383-.363.383-.367h.723l.082-.078.078-.082v-19.117l.125-.137.129-.137.203-1.023c.281-1.402.27-1.402.543 0l.195 1.02.266.281v19.117l.16.16h.723l.289.27.293.27.844-.031c.465-.016.934-.051 1.043-.074l.199-.047.16.172.164.172h.301l.074.133c.09.168.176.168.23 0l.043-.133h1.695l.121-.133c.066-.074.145-.133.176-.133h.434c0 5.488.031 10.996.043 16.484l-99.926.012-.074-12.535zm10-28.699c-.063-.156-.047-9.473.012-9.57l.055-.086 3.547.02 3.547.016.039 1.508-.078.094-.078.09h-5.027v2.059l4.68.031v1.66l-2.34.02-2.344.016.02 1.246.02 1.242 2.672.016 2.672.02v1.723h-7.355zm8.406.023c.02-.043.711-1.156 1.539-2.469l1.508-2.387-.066-.145c-.035-.082-.672-1.113-1.41-2.297-.738-1.18-1.355-2.199-1.375-2.262l-.027-.117h2.336l.16.25c.086.137.449.785.805 1.441.656 1.215.746 1.363.82 1.363.023 0 .43-.688.902-1.527l.859-1.527h2.297v.059c0 .035-.633 1.059-1.406 2.277-.77 1.215-1.383 2.281-1.434 2.324l-.027.109 1.5 2.391c.824 1.316 1.52 2.438 1.539 2.496l.043.102h-2.387l-.098-.117c-.055-.063-.469-.777-.914-1.59-.449-.813-.852-1.48-.895-1.48-.043 0-.453.738-1.004 1.578l-.93 1.578-1.184.016-1.184.02zm9.277-.785v-.867l2.422-3.063c1.332-1.684 2.422-3.102 2.422-3.148v-.086l-2.34-.016-2.34-.02-.016-.844-.02-.848h7.359l.039.105c.055.141.043 1.359-.016 1.5-.023.059-1.141 1.5-2.484 3.199-1.34 1.703-2.438 3.125-2.438 3.16v.066l2.473.016 2.473.02v1.656l-3.77.02-3.766.016zm9.199.762c-.059-.156-.043-9.473.016-9.57l.055-.086 3.547.02 3.547.016.039 1.508-.078.094-.078.09h-5.027v2.059l4.68.031v1.66l-2.34.02-2.344.016.02 1.246.02 1.242 2.672.016 2.672.02v1.723h-7.355zm9.152.023c-.016-.047-.023-2.234-.012-4.863l.016-4.781 1.012-.016 1.012-.02v7.887l.18.148 2.352.02 2.348.016v1.66l-3.438.016-3.438.02zm8.469-4.797v-4.879h.996c.547 0 1 .012 1.012.016.008.012.027 1.809.047 4l.035 3.984 2.406.016 2.406.02v1.723h-6.902zm8.496 4.883v-9.762h7.176l-.02.848-.02.844-2.555.035-2.559.031v1.992l2.359.035 2.355.031.02.695c.012.387.004.766-.016.848l-.039.148-2.34.016-2.34.02-.016 1.168-.02 1.32c.934 0 1.863.012 2.797.016l2.617.016v1.66l-3.699.02-3.703.016m9.125-.082c-.016-.047.035-2.234-.016-4.863l.02-4.781h2.172l1.852 3.254c1.02 1.789 1.879 3.262 1.918 3.273l.066.023.016-3.277.016-3.273h1.859v9.691h-2.043l-1.902-3.309c-1.047-1.82-1.93-3.309-1.965-3.305l-.063.012-.02 3.32-.016 3.316h-1.863zm12.148 0c-.016-.047.02-1.848-.047-4l-.016-3.918-1.426-.035-1.43-.031-.02-.848-.016-.844h7.906l-.02.844-.016.848-1.43.031-1.426.035-.02 4-.016 4h-1.996zm7.129.051c0-.043.07-.441.012-.902v-.844l-.008-.152h.191l1.773.039.039 1.891h-.953c-.527 0-1.055-.031-1.055-.031zm.512-2.84c-.199-1.465-.328-2.582-.516-4.133l-.035-1.234-.031-1.234-.012-.266.168-.023.973.016.977.02.02 1.203.016 1.203c-.188 1.613-.371 3.02-.531 4.559 0 .023-.223.039-.496.039h-.496zm0 0" fill="rgb(85.098039%,0%,0%)"/><path d="M10.043 47.832h14.988c3.965 0 7.41-.852 9.852-3.004 2.441-2.152 3.938-5.629 3.941-11.031-.004-5.801-1.402-9.324-3.727-11.41-2.324-2.09-5.652-2.789-9.625-2.789h-15.43v6.098h13.07c1.98-.012 3.332.691 4.098 2.051.766 1.348.996 3.266 1 5.762-.004 2.414-.211 4.309-.961 5.66-.75 1.355-2.094 2.082-4.098 2.07h-2.977v-9.992h-10.133v16.586" fill="rgb(12.54902%,33.72549%,68.235294%)" clip-path="url(#a)"/><path d="M41.023 47.832h10.129v-10.242h12.621v-6.344h-12.621v-5.551h12.621v-6.098h-22.75v28.234M70.75 22.664c-2.992 2.367-4.883 5.887-4.887 10.637.004 5.074 1.824 8.801 4.773 11.293 2.953 2.488 7.066 3.734 11.652 3.734 4.301 0 7.695-.434 11.27-1.496v-13.027h-8.609v7.59l-.191.074c-.723.273-1.625.262-2.387.266-2.219.008-3.801-.922-4.773-2.359-.973-1.438-1.363-3.352-1.363-5.371-.004-2.688.91-4.789 2.523-6.195 1.617-1.41 3.902-2.113 6.613-2.113 2.773 0 4.957.625 6.512 1.441v-7.023c-2.559-.625-4.508-1.008-9.594-1.012-4.43 0-8.543 1.195-11.539 3.563" fill="rgb(12.54902%,33.72549%,68.235294%)"/></g></svg>