<svg xmlns="http://www.w3.org/2000/svg" width="100pt" height="100pt" viewBox="0 0 100 100"><g fill="#211e1e" fill-rule="evenodd"><path d="M71.775 10.637l-26.102 26.234h-22.145l-21.09 21.09h25.801v26.238l26.234-26.238h21.996l21.09-21.09h-25.785zm-5.313 12.738v13.496h-13.512zm-40.805 18.813h14.719l-10.477 10.461h-14.707zm22.297 0h14.719l-10.629 10.461h-14.703zm22.145 0h14.719l-10.477 10.461h-14.703zm-23.051 15.625l-13.496 13.496v-13.348zm0 0"/><path d="M54.326 73.754v15.609h4.406c4.699 0 8.953-1.508 8.953-7.73 0-6.375-4.254-7.879-8.953-7.879zm3.184 2.414h1.828c2.586 0 5.148 1.969 5.148 5.465 0 3.344-2.563 5.313-5.148 5.313h-1.828zm0 0"/><path d="M89.393 73.723c-.367-.012-.727.012-1.086.031h-5.617v15.609h3.188v-5.77h2.277c1.359 0 1.82.461 2.266 1.676l1.691 4.094h3.789l-2.582-5.449c-.461-.91-.617-1.215-1.375-1.676 0 0 2.738-.758 2.582-3.789 0-3.719-2.563-4.656-5.133-4.727zm-3.516 2.598h2.129c1.664 0 3.031.465 3.168 2.129v.438c-.137 1.676-1.504 2.129-3.168 2.129h-2.129zm0 0"/><path d="M70.865 89.363h9.258v-2.574h-6.082v-13.043h-3.176zm0 0"/></g></svg>