<svg xmlns="http://www.w3.org/2000/svg" width="100pt" height="100pt" viewBox="0 0 100 100"><path d="M36.035 86.332c-.254-.148-.711-.395-1.016-.543-8.063-5.09-11.094-5.207-13.617-6.469-.445-.496-.656-1.242-1.031-1.582-1.137.031-2.523-.945-3.086-1.594-.441-.633-1.141-2.566-.59-3.207-.813-.734-3.668-1.742-4.707-2.605-3.082-2.828-6.48-5.332-9.582-8.016-1.008-1.066-.605-1.219.27-2.012.328-.301.172-.359 3.773 1.441 5.711 3.652 8.492 2.633 10.813 5.211.77 1.141.691 2.758 1.434 3.539.516.387 1.703-.641 2.031-.875 7.484-5.328 13.234-10.859 19.16-17.34 2.781-3.566 2.008-8.352-.715-10.305-1.566-1.309-14.742-13.633-16.387-12.02-.152.34-.375.523-.883.734-3.648 1.488-7.715 2.977-10.66 4.875-.34.23-1.277.68-1.418.68-.344-.109-1.199-.98-.719-1.328 1.281-1.02 2.383-1.824 3.688-2.852 1.926-1.555 4.16-3.184 5.723-4.66.875-.766 2.34-1.246 3.25-1.68-.426-.531 1.395-2.93 2.84-2.031.18.152.305-.168.387-.273.449-.703.992-1.039 1.559-1.492 3.703-2.336 6.816-4.559 10.105-6.504.402-.156 1.277-.063 1.098.441-3.922 3.465-7.609 6.219-11.465 8.734-.285.207-.305-.035.008.355 4.797 5.133 10.305 9.738 15.5 12.938 4.98 3.047 9.184 2.855 13.43.313 4.871-3.684 8.488-7.496 12.199-11.836.762-1.012 3.184-3.516 2.82-3.738-4.023-1.91-8.027-4.453-11.531-6.594-.707-.402-1.598-.926-.852-1.43.367-.25.297-.266 1.563.344 3.504 1.762 6.844 3.207 9.789 4.781 1.934.836 1.711 1.848 2.219 1.523.797-.461 1.727.059 1.801.938.02.516.496.508.871.641 5.043 1.922 9.391 5.406 13.68 7.973.66.59-.086 1.57-.715 1.496-3.34-1.121-8.305-3.383-11.75-4.121-1.367-.688-1.219-2.27-2.727-.848-3.789 3.949-8.219 7.918-11.773 11.512-1.234 1.402-2.719 3.078-3.516 4.625-1.152 3.223.43 7.281 2.363 8.801 6.48 5.617 13.063 10.684 19.773 14.84 1.922 1.441 2.668-1.094 3.012-2.668.301-.551.809-.945 1.797-1.391 4.57-1.586 9.609-4.934 12.777-6.391.305-.117.66.199 1.078.648.742.926.07 1.082-.672 1.82-4.359 3.035-7.156 7.234-11.547 9.441-.25.094-2.566 1.301-2.523 1.359.344.781.121 2.586-.141 3.262-.613 1.402-2.414 1.949-3.559 1.965-.355 1.434-2.023 2.191-3.043 2.621-4.297 1.816-8.41 4.078-12.266 6.16-.445.172-.688.574-1.098.359-.477-.391-1.121-1.422-.977-1.961 1.371-1.578 13.152-10.301 12.238-11.184-5.105-5.055-10.398-9.113-15.91-13.5-6.387-3.664-12.902-2.551-17.379 1.109-4.777 4.32-18.523 14.43-16.172 15.621.039 0 .773.57 1.758 1.363 3.621 2.906 7.055 5.445 10.43 8.109.887.754.504 2.605-.508 2.719-.234.023-.254.016-.703-.246zm0 0" fill="#004a7f"/></svg>