<svg xmlns="http://www.w3.org/2000/svg" width="100pt" height="100pt" viewBox="0 0 100 100"><g><path d="M17.242 31.922l-.77.039c-.691 3.895.117 7.941 2.426 11.293.191-.23.309-.422.461-.578-2.113-3.199-2.809-7.129-2.117-10.754zm.695 0c-.77 3.469-.078 7.172 1.961 10.293.156-.191.348-.348.5-.461-1.883-2.969-2.461-6.555-1.77-9.832zm1.383 0c-.691 3.16-.191 6.594 1.656 9.406.195-.117.348-.23.578-.348-1.73-2.695-2.234-5.934-1.539-9.02-.23 0-.461 0-.695-.039zm-3.539.117c-.23.039-.461.039-.73.113-.656 4.203.383 8.676 3 12.258.156-.191.27-.422.465-.652-2.504-3.469-3.352-7.672-2.734-11.719zm4.926.039c-.691 2.891-.23 6.012 1.504 8.633.152-.117.383-.23.613-.309-1.617-2.43-2.117-5.434-1.422-8.211-.23-.035-.461-.113-.695-.113zm-6.352.23c-.23 0-.461.078-.691.117-.578 4.699.617 9.48 3.695 13.371l.348-.77c-2.852-3.699-3.926-8.324-3.352-12.719zm7.66 0c-.613 2.66-.152 5.551 1.504 7.941.23-.117.539-.117.77-.195-1.695-2.195-2.195-5.008-1.578-7.555l-.695-.191zm-9.043.348c-.309.078-.539.113-.77.23-.461 5.086 1.113 10.293 4.617 14.414.117-.23.191-.539.309-.809-3.309-3.93-4.695-8.98-4.156-13.836zm10.391 0c-.578 2.504 0 5.203 1.734 7.285l.922-.039c-1.922-1.93-2.539-4.586-1.961-7.016-.234-.039-.465-.152-.695-.23zm-11.855.461l-.77.348c-.27 5.551 1.656 11.215 5.813 15.57 0-.113 0-.23.039-.344l.078-.582c-3.813-4.238-5.582-9.672-5.16-14.992zm13.164 0c-.5 2.199.117 4.703 1.848 6.438.191.117.309.27.461.387.695.074 1.387.23 2.082.422-.734-.309-1.426-.77-2.004-1.348-1.578-1.504-2.078-3.625-1.691-5.59-.234-.113-.465-.23-.695-.309zm1.27.578c-.27 1.695.234 3.547 1.582 4.859 1.5 1.5 3.691 1.965 5.656 1.348-.191-.234-.309-.426-.461-.656-1.617.465-3.426.078-4.695-1.195-1.078-1.117-1.543-2.621-1.387-4.047-.23-.113-.461-.23-.695-.309zm-15.895.078l-.695.383c-.113 5.781 2.043 11.68 6.508 15.996.152.234.383.465.613.695v-.961l-.152-.117c-4.387-4.395-6.504-10.215-6.273-15.996zm17.242.617c-.074 1.117.348 2.313 1.195 3.199 1.039 1.039 2.422 1.387 3.77 1.078-.191-.156-.344-.387-.539-.617-.961.117-1.961-.23-2.691-1-.656-.617-1-1.43-1.039-2.238l-.695-.422zm-18.629.191l-.691.387c.113 5.898 2.387 11.754 6.891 16.188.652.617 1.27 1.195 1.961 1.773-.113-.387-.152-.734-.23-1.078l-1.27-1.234c-4.465-4.355-6.66-10.215-6.66-16.035zm20.055.734c.113.461.348.922.77 1.27.461.465 1.039.773 1.656.813-.73-.734-1.539-1.43-2.426-2.082zm-21.363.191l-.691.5c.27 5.898 2.695 11.68 7.234 16.113 1.156 1.156 2.426 2.195 3.734 3.082-.152-.348-.348-.77-.5-1.234-.926-.691-1.848-1.504-2.773-2.352-4.465-4.43-6.852-10.211-7.004-16.109zm-1.348 1.039l-.691.617c.422 3.777 1.578 7.402 3.539 10.754.965.309 1.734 1.156 1.734 2.199v.344c.691.926 1.461 1.773 2.309 2.66 1.965 1.969 4.156 3.586 6.543 4.781v-.039c-.113-.117-.23-.309-.422-.461-.23-.309-.465-.578-.695-.926-1.73-1.043-3.387-2.391-4.887-3.895-4.543-4.434-7.008-10.137-7.43-16.035zm-1.27 1.273l-.617.695c.465 3.352 1.539 6.512 3.156 9.52.23-.117.465-.156.77-.156-1.809-3.121-2.887-6.59-3.309-10.059zm-1.195 1.426c-.191.309-.344.539-.574.809.578 3.121 1.656 6.129 3.27 8.902.117-.23.309-.383.465-.574-1.543-2.891-2.656-5.938-3.16-9.137zm29.988 1.234c-1.273.461-2.617.461-3.891.113.656.234 1.234.578 1.813.965.805 0 1.652-.152 2.422-.461-.113-.234-.23-.465-.344-.617zm-31.102.461c-.156.27-.348.578-.461.926 1.27 5.203 3.926 10.098 7.965 14.145 5.234 5.203 11.855 8.133 18.629 8.789l.848-.656c-6.926-.461-13.664-3.352-18.938-8.594-1-1.004-1.922-2.043-2.73-3.121-1.039-.23-1.848-1.156-1.848-2.313v-.348c-1.617-2.777-2.773-5.781-3.465-8.828zm31.793.734c-.656.23-1.348.422-2.039.461.23.23.461.426.652.656.578-.078 1.156-.23 1.656-.465-.039-.23-.152-.461-.27-.652zm-32.719 1.156c-.152.344-.27.691-.461 1.039 1.5 4.855 4.117 9.289 7.93 13.105 5.043 5.051 11.277 7.977 17.746 8.98.344-.191.613-.422.961-.578-6.621-.809-13.086-3.777-18.207-8.863-3.926-3.973-6.582-8.637-7.969-13.684zm33.297.078c-.465.23-1 .383-1.5.461.152.23.27.461.461.617.461-.117.844-.23 1.309-.387l-.27-.691zm-8.297 1.109c-.305-.012-.613.008-.902.047 1.23.73 2.617 1.191 3.926 1.422-.348-.383-.73-.73-1.195-.961-.305-.117-.652-.23-.922-.348-.289-.098-.598-.145-.906-.16zm-1.75.199c-.309.117-.539.23-.77.348 1.926 1.465 4.117 2.273 6.352 2.426-.039-.23-.156-.5-.27-.73-1.926-.195-3.695-.887-5.313-2.043zm10.547 0l-1.195.422c.117.156.234.387.348.617.348-.113.695-.23 1.039-.383l-.191-.656zm-34.605.77c-.113.387-.23.809-.266 1.195 1.613 4.277 4.156 8.324 7.617 11.797 4.699 4.66 10.395 7.668 16.477 8.941.344-.117.73-.27 1.152-.465-6.313-1.156-12.316-4.16-17.164-8.941-3.656-3.699-6.238-7.902-7.816-12.527zm22.672 0l-.191.156c-.117.113-.23.23-.348.309 1.965 1.543 4.16 2.465 6.469 2.813h1.23v-.578c-2.539-.152-5.043-1.078-7.16-2.699zm12.355.578c-.348.117-.652.234-1 .27l.309.695c.27-.117.5-.156.809-.27 0-.23-.078-.465-.117-.695zm-13.238.465c-.117.152-.234.383-.348.613.809.656 1.691 1.156 2.617 1.621h1.848c-1.465-.5-2.848-1.273-4.117-2.234zm13.508.848l-.809.309c.117.23.195.461.234.691.23-.113.461-.191.652-.23l-.078-.77zm-14.086.461l-.156.695c.465.344.965.691 1.426 1v-.77h.191c-.539-.27-1-.578-1.461-.926zm-21.711.195c-.074.461-.113.922-.113 1.387 1.617 3.621 3.965 7.016 6.965 10.02 4.313 4.281 9.395 7.172 14.82 8.75.461-.078.922-.191 1.387-.348-5.734-1.387-11.203-4.395-15.746-8.902-3.23-3.238-5.656-7.016-7.313-10.906zm35.992.809l-.656.152c.078.23.117.465.117.695l.574-.156-.035-.691zm-14.551.461c-.078.27-.078.578-.078.809.539.348 1.117.617 1.617.887v-.73c-.5-.27-1.039-.617-1.539-.965zm14.586.926l-.461.156c0 .152.078.383.078.613.113-.035.309-.039.383-.113zm-14.664.617v.848c4.391 2.543 9.469 3.316 14.281 2.16.113-.234.152-.465.23-.695v-.078c-3.773 1.004-7.813.773-11.434-.691h-1.461v-.617c-.5-.309-1.078-.582-1.617-.926zm-21.555.039c0 .578.078 1.156.117 1.695 1.578 2.813 3.578 5.473 5.965 7.863 3.695 3.699 7.969 6.398 12.547 8.133.578 0 1.156-.039 1.734-.117-5.043-1.656-9.777-4.508-13.82-8.555-2.73-2.699-4.848-5.781-6.543-9.02zm36.219.691c-.074.078-.23.078-.344.117l-.039.695h-9.086c3.082.809 6.352.809 9.434-.039 0-.234 0-.465.035-.773zm-25.941.117c-.117.23-.23.422-.387.578.617.809 1.273 1.578 2.043 2.313 3.734 3.699 8.234 6.129 13.047 7.285-1.461-.465-2.73-1.078-3.887-1.965-3.156-1.313-6.121-3.277-8.66-5.82-.73-.773-1.504-1.582-2.156-2.391zm11.395.809c.074.348.113.656.191.926 4.043 2.082 8.66 2.773 13.047 2.043l.117-.117c.152-.23.348-.461.461-.77-4.617 1-9.582.309-13.816-2.082zm-12.355.195c-.195.113-.465.23-.695.23.695.926 1.504 1.77 2.313 2.656 5.387 5.32 12.238 8.133 19.242 8.441.23-.23.465-.461.734-.691-7.082-.117-14.09-2.891-19.441-8.289-.77-.73-1.461-1.539-2.152-2.348zm12.816 1.617c.191.387.348.73.578 1.039 3.309 1.426 6.891 1.969 10.352 1.734.387-.23.734-.539 1.078-.809-4.039.5-8.234-.113-12.008-1.965zm-21.672.152c.191.773.426 1.504.656 2.199 1.191 1.695 2.461 3.238 3.965 4.738 2.848 2.777 5.965 5.051 9.313 6.785.77.156 1.578.27 2.309.348-4.039-1.813-7.813-4.355-11.082-7.633-2.043-1.965-3.695-4.16-5.16-6.438zm23.48 2.082c1.309 1.043 3.043 1.734 4.891 1.734 1 0 1.922-.152 2.73-.461-2.617 0-5.156-.387-7.621-1.273zm-21.555 2.891c2.078 3.586 5.234 6.359 9.082 7.863-2.461-1.504-4.773-3.277-6.852-5.434-.809-.734-1.5-1.543-2.23-2.43zm29.676 2.621c-1.039.27-2.191.387-3.348.387h-.578c1.117.113 2.27.191 3.426.191.152-.191.348-.422.5-.578zm0 0" fill="#4a78b5"/><path d="M50.129 39.906c-.578-.012-1.16.023-1.746.109-2.887.465-4.965 2.082-6.426 4.395-.734 1.313-1.273 2.816-1.504 4.281-.461 3.504.539 9.402 6.699 11.715 2.848 1.082 6.504.695 9.277-1.348 1.539-1.156 3.117-3.738 3.23-5.359h-5.156c-.152.695-.578 1.621-1.5 2.313-2.082 1.504-4.391.5-5.43-.23-1.578-1.156-2.078-3.082-2.156-5.781 0-1.426.426-3.738 1.617-4.855 1.348-1.078 2.965-1.387 4.465-.926 1.695.539 2.965 2.391 2.852 4.047h-7.238v3.625h12.547c.117-1.313-.113-2.586-.344-3.781-.426-1.809-1.504-4.008-2.656-5.316-1.66-1.848-4.027-2.832-6.531-2.887zm19.793.023c-.457.016-.926.055-1.406.125-2.078.309-4.852 1.504-5.813 4.242-.809 2.543 0 4.855 1.578 6.051 1.961 1.504 5.656 1.887 7.16 2.234 1.73.348 2.617.578 2.887 1.582.191.613.113 1.387-.27 1.887-1.117 1.465-3.352 1.582-5.16 1.039-1.5-.461-2.117-1.656-2.426-3.273h-4.5c0 1.504.461 2.543 1.23 3.738.961 1.582 2.695 2.852 5.234 3.238 2.77.461 5.621.113 7.273-.809 1.004-.578 1.734-1.313 2.387-2.121.926-1.156 1.734-4.047.27-6.59-1.27-2.199-4.156-2.66-6.813-3.125-1.539-.27-3.348-.344-4.273-1.387-.383-.461-.383-1.27-.152-1.734.617-1.273 2.195-1.656 3.695-1.543 1.309 0 2.539.695 3.039 1.852.234.461.309.965.348 1.504h4.273c.074-1.695-.617-3.43-1.656-4.512-1.18-1.211-3.711-2.484-6.906-2.398zm20.531.012c-1.422.074-2.961.309-4.156.77-2.539 1.039-3.813 3.508-3.813 6.129h4.621c-.113-1.348.848-2.543 1.809-2.891.387-.195.961-.309 1.539-.309 1.156-.039 2.309.23 3.117 1 .539.504.695 1.195.539 1.969-.305 1.195-1.617 1.617-3.656 1.887-.691.117-1.5.195-2.387.309-2.426.27-5.887 1.465-6.695 5.012-.27 1.387-.039 3.93 2.078 5.59 1.461 1.117 3.465 1.617 5.043 1.578.691 0 1.383-.078 1.961-.191 1.617-.348 2.887-1.078 4.121-2.082.035.309.344 1.387.578 1.695h4.848c-.77-1.504-.656-3.699-.656-4.934v-6.203c-.035-1.621-.035-3.238-.383-4.742s-1.691-4.008-5.965-4.512c-.809-.074-1.656-.074-2.543-.074zm3.926 10.406c0 .461.078 3.738-.23 4.395-.5 1.387-1.961 2.195-3.695 2.348-.344.078-.73.117-1.152.078-1.156 0-2.156-.578-2.543-1.465-.461-.848-.191-1.734.117-2.234.691-1.234 1.887-1.465 3.578-1.813.539-.035 1.117-.152 1.734-.348 1.27-.27 1.578-.5 2.191-.961zm0 0" fill="#0c1e7f"/></g></svg>