<?xml version="1.0" encoding="UTF-8" standalone="no"?>
<!-- Generator: Adobe Illustrator 17.0.0, SVG Export Plug-In . SVG Version: 6.00 Build 0)  -->

<svg
   xmlns:dc="http://purl.org/dc/elements/1.1/"
   xmlns:cc="http://creativecommons.org/ns#"
   xmlns:rdf="http://www.w3.org/1999/02/22-rdf-syntax-ns#"
   xmlns:svg="http://www.w3.org/2000/svg"
   xmlns="http://www.w3.org/2000/svg"
   xmlns:sodipodi="http://sodipodi.sourceforge.net/DTD/sodipodi-0.dtd"
   xmlns:inkscape="http://www.inkscape.org/namespaces/inkscape"
   version="1.1"
   id="Layer_1"
   x="0px"
   y="0px"
   width="400"
   height="400"
   viewBox="0 0 400 400"
   enable-background="new 0 0 400 225"
   xml:space="preserve"
   inkscape:version="0.48.5 r10040"
   sodipodi:docname="Isu-logo.svg"><metadata
   id="metadata71"><rdf:RDF><cc:Work
       rdf:about=""><dc:format>image/svg+xml</dc:format><dc:type
         rdf:resource="http://purl.org/dc/dcmitype/StillImage" /></cc:Work></rdf:RDF></metadata><defs
   id="defs69" /><sodipodi:namedview
   pagecolor="#ffffff"
   bordercolor="#666666"
   borderopacity="1"
   objecttolerance="10"
   gridtolerance="10"
   guidetolerance="10"
   inkscape:pageopacity="0"
   inkscape:pageshadow="2"
   inkscape:window-width="1858"
   inkscape:window-height="1057"
   id="namedview67"
   showgrid="false"
   inkscape:zoom="2.0223254"
   inkscape:cx="273.00191"
   inkscape:cy="191.3197"
   inkscape:window-x="54"
   inkscape:window-y="-8"
   inkscape:window-maximized="1"
   inkscape:current-layer="g3" />
<g
   id="g3"
   transform="translate(4.1958044,79.895107)">
	
	
	
	
	
	
	
	
	
	
	
	
	
	
	
	
	
	
	
	
	
	
	
	
	
	
	
	
	
	<rect
   x="7.3629999"
   y="9.8319998"
   width="82.472"
   height="58.108002"
   id="rect63"
   style="fill:#00407e" />
	<path
   d="m 44.605,177.694 c 2.989,20.991 17.272,35.798 42.55,43.644 H 7 V 83.825 h 89.042 c -29.115,6.002 -48.355,19.723 -50.061,47.28 -2.886,46.615 95.597,29.774 116.897,40.814 2.439,1.264 4.153,3.614 4.299,5.745 0.443,6.422 -0.398,13.275 -18.496,13.717 -7.4,0.178 -11.732,-1.086 -15.16,-2.979 -5.652,-3.123 -7.4,-4.782 -12.107,-10.709 H 44.605 m 273.346,-93.777 -0.085,62.347 c -0.963,19.972 -14.904,33.206 -30.425,33.206 -14.8,0 -27.55,-10.107 -29.577,-33.444 V 83.916 h -0.019 v -0.092 h -68.97 c 30.138,6.411 45.31,20.429 48.333,41.156 h -81.326 c -1.067,-3.529 -2.06,-6.957 -7.564,-9.575 -5.875,-2.793 -5.938,-2.707 -12.992,-2.978 -15.736,-0.602 -19.492,7.943 -19.685,12.903 -0.948,24.077 127.405,-5.775 125.241,52.337 -0.911,24.43 -24.668,37.133 -49.456,43.67 h 58.908 c 0,0 0,0.003 0,0.003 0,0 9.642,0.193 19.886,0 25.282,-0.483 41.149,0 48.143,-10.348 v 10.166 h 65.698 V 83.916 h -66.11 z"
   id="path65"
   inkscape:connector-curvature="0"
   style="fill:#00407e" />
</g>
</svg>