<?xml version="1.0" encoding="UTF-8" standalone="no"?>
<!-- Created with Inkscape (http://www.inkscape.org/) -->
<svg
   xmlns:dc="http://purl.org/dc/elements/1.1/"
   xmlns:cc="http://web.resource.org/cc/"
   xmlns:rdf="http://www.w3.org/1999/02/22-rdf-syntax-ns#"
   xmlns:svg="http://www.w3.org/2000/svg"
   xmlns="http://www.w3.org/2000/svg"
   xmlns:sodipodi="http://sodipodi.sourceforge.net/DTD/sodipodi-0.dtd"
   xmlns:inkscape="http://www.inkscape.org/namespaces/inkscape"
   id="svg1986"
   sodipodi:version="0.32"
   inkscape:version="0.44"
   width="471"
   height="393"
   version="1.0"
   sodipodi:docbase="C:\Documents and Settings\Administrator\My Documents\My Pictures\vikipedi"
   sodipodi:docname="ODTU Logosu.svg">
  <metadata
     id="metadata1991">
    <rdf:RDF>
      <cc:Work
         rdf:about="">
        <dc:format>image/svg+xml</dc:format>
        <dc:type
           rdf:resource="http://purl.org/dc/dcmitype/StillImage" />
      </cc:Work>
    </rdf:RDF>
  </metadata>
  <defs
     id="defs1989" />
  <sodipodi:namedview
     inkscape:window-height="728"
     inkscape:window-width="903"
     inkscape:pageshadow="2"
     inkscape:pageopacity="1"
     guidetolerance="10.0"
     gridtolerance="10.0"
     objecttolerance="10.0"
     borderopacity="1.0"
     bordercolor="#666666"
     pagecolor="white"
     id="base"
     inkscape:zoom="0.83510829"
     inkscape:cx="235.5"
     inkscape:cy="206.74857"
     inkscape:window-x="1768"
     inkscape:window-y="36"
     inkscape:current-layer="svg1986" />
  <path
     style="fill:#c00000;fill-opacity:1"
     d="M 181.68503,382.14594 C 157.58165,379.71338 135.75828,373.36733 114.24489,362.53491 C 77.244534,343.9045 49.440114,316.10656 30.875554,279.18501 C 22.625164,262.77648 18.081254,249.96237 14.656114,233.44517 C 5.8463538,190.96142 11.369434,148.90413 30.835134,110.24487 C 49.473354,73.229007 77.229034,45.473327 114.24489,26.835107 C 149.75918,8.9529569 186.84224,2.9638669 226.43503,8.7158669 C 235.1059,9.9755569 237.3195,9.9527569 246.43503,8.5097969 C 260.2308,6.3259769 287.25112,6.3443969 301.1847,8.5471269 C 314.05735,10.582137 331.70192,15.219297 341.72952,19.202677 C 394.37179,40.114427 435.00987,82.964837 452.11189,135.59426 C 483.24521,231.40331 435.47033,332.92951 341.72952,370.16734 C 331.70192,374.15072 314.05735,378.78788 301.1847,380.82289 C 287.24805,383.0261 260.23103,383.04406 246.42873,380.85928 C 237.22883,379.40302 235.16978,379.38631 226.43785,380.69711 C 213.67785,382.61259 192.95609,383.28343 181.68503,382.14594 z M 298.68503,377.71844 C 339.61502,371.86575 375.33909,354.09271 404.21591,325.21589 C 439.4152,290.0166 458.14839,244.67733 458.14839,194.68501 C 458.14839,144.69269 439.4152,99.353417 404.21591,64.154127 C 374.50131,34.439517 337.20086,16.353607 294.86126,11.131207 C 283.1384,9.6852469 250.5978,10.274837 247.64629,11.986677 C 246.01767,12.931267 245.96654,13.129347 247.34485,13.154597 C 253.60597,13.269307 279.97226,24.300277 295.09252,33.130977 C 332.58252,55.026317 363.46986,93.612537 377.11189,135.59426 C 399.4115,204.21862 381.78215,277.8163 330.94896,328.31176 C 315.57228,343.58628 298.81124,355.23745 277.77248,365.27654 C 267.98929,369.9448 250.63077,376.18501 247.42819,376.18501 C 246.56112,376.18501 246.17061,376.50392 246.56039,376.89371 C 248.9623,379.29561 283.80042,379.84683 298.68503,377.71844 z M 234.18503,14.146907 L 231.43503,14.752867 C 224.16473,16.354887 208.15193,21.676467 200.12217,25.159167 C 152.01833,46.022947 114.58879,87.165557 98.115514,137.28506 C 91.173074,158.40726 89.698604,168.46252 89.698604,194.68501 C 89.698604,220.9075 91.173074,230.96276 98.115514,252.08496 C 116.81796,308.98664 162.38227,353.88331 218.87476,371.07474 C 227.73583,373.77129 231.21438,374.72554 233.43503,375.06901 L 234.18503,14.146907 z "
     id="path3791"
     sodipodi:nodetypes="cssssssssssssssccsssssssssssscccssssssc" />
</svg>
