<svg xmlns="http://www.w3.org/2000/svg" width="100pt" height="100pt" viewBox="0 0 100 100"><g><path d="M87.072 50c0 22.348-18.359 40.738-40.664 40.738s-40.66-18.391-40.66-40.738c0-22.348 17.926-40.738 40.66-40.738 21.875 0 40.664 18.391 40.664 40.738" fill="#195cab"/><path d="M55.58 71.441c17.371 7.168 14.359-10.945 5.098-24.813-5.246-7.855-12.094-14.402-16.41-17.563-14.316-10.477-23.152-4.121-13.043 16.543 3.27 6.68 7.465 11.191 10.742 15.441 2.504 3.242 7.383 4.867 5.664 6.41-1.934 1.734-6.625-5.922-6.625-5.922-3.461-4.191-6.762-8.656-10.16-14.789-7.773-14.008-6.652-28.301 7.414-22.074 11.938 5.285 23.336 20.117 27.922 30.645 2.117 4.863 7.887 24.105-10.496 16.324" fill="#fff"/><path d="M1.561 62.078c7.641-5.105 14.887-8.402 27.219-12.484 17.324-5.742 30.367-9.602 46.367-17.668 7.164-3.609 19.59-11.707 24.035-18.742-1.332 2.723-5.453 8.023-7.316 10.371-21.711 27.262-67.957 25.715-90 38.805" fill="#ee283a"/><path d="M12.646 42.152c6.992.055 6.309-.016 6.391.066.121 0 5.582 9.434 5.582 9.516 0 .039-.039-3.352-.039-7.598 0-.488-1.344-1.918-1.305-1.918 1.996 0 4.605.043 4.605.043-.977 1.141-1.172 1.047-1.18 1.754-.027 2.273-.055 6.473 0 11.191.008.707.527.98 1.383 2.207h-6.398c-2.078-3.473-5.891-9.984-5.871-9.969.031.031-.082 4.086.039 7.352.043 1.082.531 1.43 1.43 2.41 0 0 1.031-.027-5.016.043 1.836-.98 1.59-2.207 1.59-2.246-.066-4.516-.012-8.375-.012-10.867 0-.406-.027-.367-1.293-1.918" fill="#fff"/><path d="M34.514 49.121c.59-2.043 1.09-3.871 1.328-5.063.039-.207-.449-.941-1.223-1.676l-.055-.113c3.734.012 7.637.031 7.637.031 1.02 2.492 3.344 9.477 5.094 13.766.465 1.133 1.266 1.348 1.266 1.348-3.18-.043-9.082-.016-9.051-.043 1.59-1.43 1.387-1.43.695-3.512h-4.973c-1.02 2.367.316 3.48.488 3.473-1.133.059-4.973 0-4.973 0 2.078-1.473 1.957-1.922 1.957-1.922.57-2.035 1.23-4.27 1.809-6.289h2.043c-.438 1.41-.879 2.816-.879 2.816h3.957l-2.203-5.633-.875 2.816h-2.039" fill="#fff"/><path d="M68.678 49.324c.586-2.043 1.09-3.871 1.324-5.063.043-.203-.449-.938-1.223-1.676l-.055-.113c3.738.012 7.641.031 7.641.031 1.016 2.492 3.34 9.477 5.094 13.766.461 1.133 1.262 1.348 1.262 1.348-3.176-.043-9.078-.012-9.047-.043 1.59-1.426 1.387-1.426.691-3.512h-4.973c-1.02 2.371.316 3.48.488 3.473-1.133.059-4.973 0-4.973 0 2.078-1.469 1.957-1.918 1.957-1.918.57-2.039 1.234-4.27 1.813-6.293h2.039l-.875 2.82h3.953l-2.203-5.637-.875 2.816h-2.039" fill="#fff"/><path d="M62.248 45.977c-.082-2.898 0-3.84 0-3.84-1.266 1.023-.629.895-3.793.371-9.117-1.512-9.813 7.027-4.852 8.941 4.168 1.609 5.641 1.926 5.016 3.43-.207.492-3.996 2.289-7.91-1.344l.082 5.063c.488-.504 1.836-1.43 1.836-1.43.039 0 4.242 1.855 8.027-.082 5.832-2.98 2.922-7.805-3.301-9.719-5.176-1.594-.285-5.313 4.852-1.348" fill="#fff"/><path d="M46.982 12.961c0 .184-.152.332-.332.332-.184 0-.332-.148-.332-.332 0-.18.148-.332.332-.332.18 0 .332.152.332.332" fill="#fff"/><path d="M49.279 17.988c0 .227-.188.41-.41.41-.223 0-.406-.184-.406-.41 0-.223.184-.406.406-.406.223 0 .41.184.41.406" fill="#fff"/><path d="M55.236 26.207c0 .227-.184.41-.406.41-.223 0-.41-.184-.41-.41 0-.223.172-.406.395-.406.227 0 .422.184.422.406" fill="#fff"/><path d="M45.658 20.824c0 .18-.152.332-.332.332-.184 0-.332-.152-.332-.332 0-.184.148-.332.332-.332.18 0 .332.148.332.332" fill="#fff"/><path d="M49.225 22.711c0 .184-.148.332-.328.332-.184 0-.332-.148-.332-.332 0-.18.148-.332.332-.332.18 0 .328.152.328.332" fill="#fff"/><path d="M44.588 17.426c0 .227-.184.41-.406.41-.227 0-.41-.184-.41-.41 0-.223.184-.406.41-.406.223 0 .406.184.406.406" fill="#fff"/><path d="M39.189 20.723c0 .18-.152.332-.332.332-.184 0-.332-.152-.332-.332 0-.184.148-.332.332-.332.18 0 .332.148.332.332" fill="#fff"/><path d="M40.154 21.383c0 .184-.152.332-.332.332-.184 0-.332-.148-.332-.332 0-.18.148-.328.332-.328.18 0 .332.148.332.328" fill="#fff"/><path d="M41.123 22.047c0 .184-.148.332-.332.332-.184 0-.332-.148-.332-.332 0-.18.148-.328.332-.328.184 0 .332.148.332.328" fill="#fff"/><path d="M39.646 23.324c0 .184-.152.332-.332.332-.184 0-.332-.148-.332-.332 0-.18.148-.332.332-.332.18 0 .332.152.332.332" fill="#fff"/><path d="M31.951 28.734c0 .184-.148.332-.332.332-.18 0-.332-.148-.332-.332 0-.18.152-.332.332-.332.184 0 .332.152.332.332" fill="#fff"/><path d="M33.377 30.473c0 .184-.148.332-.332.332-.18 0-.332-.148-.332-.332 0-.184.152-.332.332-.332.184 0 .332.148.332.332" fill="#fff"/><path d="M32.244 58.5c0 .184-.148.332-.332.332-.18 0-.332-.148-.332-.332 0-.18.152-.332.332-.332.184 0 .332.152.332.332" fill="#fff"/><path d="M32.447 66.234c0 .223-.184.406-.406.406-.227 0-.41-.184-.41-.406 0-.227.184-.41.41-.41.223 0 .406.184.406.41" fill="#fff"/><path d="M28.064 70.191c0 .184-.148.332-.332.332-.18 0-.332-.148-.332-.332 0-.18.152-.332.332-.332.184 0 .332.152.332.332" fill="#fff"/><path d="M22.818 71.797c0 .227-.188.41-.41.41-.223 0-.406-.184-.406-.41 0-.223.184-.406.406-.406.223 0 .41.184.41.406" fill="#fff"/><path d="M21.748 68.227c0 .223-.188.406-.41.406-.223 0-.406-.184-.406-.406 0-.227.184-.41.406-.41.223 0 .41.184.41.41" fill="#fff"/><path d="M21.135 70.496c0 .184-.148.332-.332.332-.18 0-.332-.148-.332-.332 0-.18.152-.332.332-.332.184 0 .332.152.332.332" fill="#fff"/><path d="M17.213 68.609c0 .18-.152.332-.332.332-.184 0-.332-.152-.332-.332 0-.184.148-.332.332-.332.18 0 .332.148.332.332" fill="#fff"/><path d="M30.92 74.988c0 .184-.141.332-.32.332-.18 0-.344-.148-.344-.332 0-.18.148-.332.332-.332.18 0 .332.152.332.332" fill="#fff"/><path d="M35.045 71.953c0 .227-.168.41-.395.41-.223 0-.418-.184-.418-.41 0-.223.184-.406.406-.406.223 0 .406.184.406.406" fill="#fff"/><path d="M35.518 75.859c0 .18-.16.332-.344.332-.18 0-.332-.152-.332-.332 0-.184.152-.332.332-.332.184 0 .344.148.344.332" fill="#fff"/><path d="M52.482 72.129c0 .184-.148.332-.328.332-.184 0-.332-.148-.332-.332 0-.18.148-.332.332-.332.18 0 .328.152.328.332" fill="#fff"/><path d="M44.588 74.938c0 .184-.148.332-.332.332-.18 0-.332-.148-.332-.332 0-.18.152-.332.332-.332.184 0 .332.152.332.332" fill="#fff"/><path d="M65.838 78.973c0 .184-.152.332-.332.332-.184 0-.332-.148-.332-.332 0-.18.148-.332.332-.332.18 0 .332.152.332.332" fill="#fff"/><path d="M67.568 63.273c0 .223-.184.41-.41.41-.223 0-.406-.188-.406-.41 0-.223.184-.41.406-.41.227 0 .41.188.41.41" fill="#fff"/><path d="M64.307 65.492c0 .184-.148.332-.332.332-.18 0-.328-.148-.328-.332 0-.18.148-.332.328-.332.184 0 .332.152.332.332" fill="#fff"/><path d="M67.518 66.133c0 .223-.184.41-.406.41-.223 0-.406-.188-.406-.41 0-.223.184-.406.406-.406.223 0 .406.184.406.406" fill="#fff"/><path d="M64.307 70.09c0 .18-.148.332-.332.332-.18 0-.328-.152-.328-.332 0-.184.148-.332.328-.332.184 0 .332.148.332.332" fill="#fff"/><path d="M72.611 61.055c0 .18-.148.332-.332.332-.18 0-.328-.152-.328-.332 0-.184.148-.332.328-.332.184 0 .332.148.332.332" fill="#fff"/><path d="M73.416 63.07c0 .223-.172.406-.395.406-.223 0-.422-.184-.422-.406 0-.227.184-.41.406-.41.227 0 .41.184.41.41" fill="#fff"/><path d="M79.135 65.469c0 .223-.18.41-.406.41-.223 0-.406-.188-.406-.41 0-.223.184-.41.406-.41.227 0 .406.188.406.41" fill="#fff"/><path d="M73.326 69.734c0 .18-.152.332-.332.332-.184 0-.332-.152-.332-.332 0-.184.148-.332.332-.332.18 0 .332.148.332.332" fill="#fff"/><path d="M76.994 66.262c0 .18-.148.332-.332.332-.18 0-.328-.152-.328-.332 0-.184.148-.332.328-.332.184 0 .332.148.332.332" fill="#fff"/><path d="M76.318 71.621c0 .184-.148.332-.332.332-.18 0-.332-.148-.332-.332 0-.18.152-.332.332-.332.184 0 .332.152.332.332" fill="#fff"/><path d="M77.873 62.711c0 .281-.23.512-.508.512-.281 0-.512-.23-.512-.512 0-.277.23-.508.512-.508.277 0 .508.23.508.508" fill="#fff"/><path d="M77.365 61.156l-.152 1.402-1.391.156 1.398.152.156 1.453.152-1.453 1.375-.18-1.387-.129-.152-1.402" fill="#fff"/><path d="M74.307 71.594c0 .281-.23.512-.512.512-.277 0-.508-.23-.508-.512 0-.281.23-.512.508-.512.281 0 .512.23.512.512" fill="#fff"/><path d="M73.799 70.039l-.152 1.402-1.391.152 1.402.156.152 1.453.152-1.453 1.375-.18-1.387-.129-.152-1.402" fill="#fff"/><path d="M36.295 29.426c0 .277-.23.508-.508.508-.281 0-.512-.23-.512-.508 0-.281.23-.512.512-.512.277 0 .508.23.508.512" fill="#fff"/><path d="M35.783 27.867l-.152 1.402-1.387.156 1.398.152.152 1.453.156-1.453 1.375-.18-1.391-.129-.152-1.402" fill="#fff"/><path d="M55.248 17.07c0 .281-.23.512-.508.512-.281 0-.508-.23-.508-.512 0-.281.227-.512.508-.512.277 0 .508.23.508.512" fill="#fff"/><path d="M54.74 15.512l-.152 1.406-1.391.152 1.402.152.152 1.457.152-1.457 1.375-.18-1.387-.125-.152-1.406" fill="#fff"/><path d="M32.205 79.766c0 .281-.23.512-.508.512-.281 0-.512-.23-.512-.512 0-.281.23-.512.512-.512.277 0 .508.23.508.512" fill="#fff"/><path d="M31.709 78.207l-.152 1.402-1.391.156 1.402.152.152 1.453.152-1.453 1.375-.18-1.387-.129-.152-1.402" fill="#fff"/><path d="M99.178 13.184c-6.195 18.438-31.02 32.672-51.918 46.266-12.605 8.199-25.121 17.641-33.738 25.672-2.273 2.121.461-.789-.41.105 12.027-13.887 25.859-22.16 33.504-27.363 12.926-8.809 20.277-11.027 42.582-31.633" fill="#ee283a"/><path d="M6.729 58.859c-2.227 1.094-4.219 2.172-5.91 3.227l1.027.375c1.48-.914 3.254-1.867 5.125-2.707" fill="#ee283a"/><path d="M18.475 79.492c-2.031 1.781-4.137 3.684-6.246 5.676l-.09 1.406c1.93-1.996 4.301-4.148 7.039-6.434" fill="#ee283a"/><path d="M55.58 71.441c17.371 7.168 14.359-10.945 5.098-24.813-5.246-7.855-11.719-14.09-16.41-17.563-5.477-4.055-6.012-4.391-6.012-4.391 12.23 5.82 23.34 20.117 27.922 30.648 2.117 4.859 7.891 24.102-10.496 16.32" fill="#fff"/></g></svg>