<svg xmlns="http://www.w3.org/2000/svg" viewBox="0 0 72 72"><path transform="translate(-160 -5)" d="M207.85 32.73a13.49 13.49 0 0 1-23.72 0 13.53 13.53 0 0 1 7.74-6.42h-9.36a13.48 13.48 0 0 1 27 0h-9.36a13.53 13.53 0 0 1 7.7 6.42zm-11.85 10.91a17.3 17.3 0 0 1-13.37-6.29 13.46 13.46 0 0 1 .57-2.46 15.42 15.42 0 0 0 25.6 0 13.59 13.59 0 0 1 .57 2.46 17.31 17.31 0 0 1-13.37 6.29zm-17.34-17.33a17.34 17.34 0 1 1 34.67 0h-1.93a15.41 15.41 0 1 0-30.82 0h-1.92zm30.23 16.82a21.2 21.2 0 0 1-25.78 0 13.48 13.48 0 0 1-.46-2.05 19.91 19.91 0 0 0 26.7 0 13.58 13.58 0 0 1-.47 2.05zm-34.09-16.83a21.19 21.19 0 1 1 42.38 0h-1.28a19.91 19.91 0 0 0-39.81 0h-1.29z" fill="#dd291e"/><path transform="translate(-160 -5)" d="M231.31 26.31l-35.31 49.44-35.33-49.44h14.13a21.15 21.15 0 0 0 8.3 16.82 13.49 13.49 0 0 0 25.78 0 21.15 21.15 0 0 0 8.3-16.82h14.13zm-55.22 0h2.57a17.26 17.26 0 0 0 4 11 13.76 13.76 0 0 0 0 3.73 19.86 19.86 0 0 1-6.58-14.73zm4.5 0h1.93a13.42 13.42 0 0 0 1.62 6.42 13.35 13.35 0 0 0-.94 2.17 15.33 15.33 0 0 1-2.62-8.6zm28.76 14.77a13.77 13.77 0 0 0 0-3.73 17.26 17.26 0 0 0 4-11h2.57a19.86 19.86 0 0 1-6.58 14.72zm-.55-6.18a13.5 13.5 0 0 0-.94-2.17 13.42 13.42 0 0 0 1.62-6.42h1.93a15.35 15.35 0 0 1-2.62 8.58z" fill-rule="evenodd"/></svg>