<svg xmlns:rdf="http://www.w3.org/1999/02/22-rdf-syntax-ns#" xmlns="http://www.w3.org/2000/svg" height="100pt" width="100pt" version="1.1" xmlns:cc="http://creativecommons.org/ns#" xmlns:dc="http://purl.org/dc/elements/1.1/" viewBox="0 0 100 100">
<g>
<rect height="100" width="100" y="0" x="0" fill="#be1e3c"/>
<g fill="#fff">
<g fill-rule="evenodd">
<path d="m38.359 45.133c0.598-0.356 1.325-0.758 1.743-1.102 0.515-0.426 1.222-1.359 1.226-1.715-0.797-0.902-0.664-1.796-0.707-2.648-0.012-0.191-0.25-0.391-0.582-0.227-0.914 0.442-1.977 0.77-1.977 0.77s-0.222 1.32 0.075 1.629c0.304 0.324 1 0.211 0.945 0.683-0.035 0.305-0.484 0.825-0.777 1.055-0.489 0.391-1.082 0.719-1.383 0.863 0 0-0.902-0.32-2.121-0.203-0.481 0.043-0.508 0.434-0.508 0.434s-0.16 0.008-0.281 0.062c-0.141 0.059-0.239 0.196-0.239 0.196s0.102 0.125 0.266 0.191c0.109 0.043 0.266 0.035 0.266 0.035 0.047 0.176 0.211 0.364 0.453 0.395 0.605 0.09 1.008 0.023 1.332-0.055 0.183-0.047 0.312-0.019 0.359 0.125 0.051 0.145-0.086 0.262-0.203 0.332-0.469 0.274-0.793 0.477-0.984 0.711-0.192 0.231-0.289 0.539-0.192 0.781-0.047 0.075-0.117 0.164-0.148 0.285-0.035 0.125-0.027 0.254 0.008 0.383 0.093 0.004 0.175-0.008 0.273-0.047s0.195-0.089 0.27-0.207c0.242 0.079 0.562 0.024 0.793-0.312 0.195-0.281 0.422-0.785 0.488-0.988 0.066-0.204 0.152-0.247 0.269-0.223 0.106 0.023 0.188 0.09 0.129 0.414-0.043 0.234-0.035 0.723 0.004 0.949 0.145 0.797 0.582 0.746 0.582 0.746s0.032 0.141 0.121 0.254c0.094 0.113 0.211 0.188 0.321 0.219 0.05-0.109 0.09-0.273 0.074-0.406s-0.059-0.227-0.059-0.227c0.11-0.082 0.246-0.25 0.184-0.586-0.121-0.582-0.348-0.851-0.512-1.105-0.105-0.168-0.07-0.301 0.035-0.375 0.102-0.071 0.254-0.051 0.391 0.144 0.152 0.219 0.363 0.52 0.781 0.723 0.285 0.137 0.508 0.086 0.641-0.024 0 0 0.121 0.075 0.223 0.106 0.101 0.035 0.218 0.051 0.339 0.035-0.019-0.113-0.05-0.226-0.097-0.332-0.047-0.101-0.098-0.164-0.18-0.238 0.023-0.156-0.012-0.453-0.145-0.586-0.46-0.465-1.496-0.914-1.496-0.914"/>
<path d="m33.645 26.105s0.683 0.907 1.07 0.629c0.308-0.222 0.144-0.582-0.094-0.832-0.324-0.34-0.66-0.09-0.976 0.203m13.492 20.997c-0.125 0.011-0.242 0-0.344-0.032-0.105-0.039-0.223-0.109-0.223-0.109-0.136 0.113-0.355 0.156-0.64 0.019-0.418-0.199-0.629-0.5-0.785-0.718-0.137-0.196-0.29-0.219-0.391-0.145-0.102 0.074-0.141 0.207-0.035 0.375 0.164 0.258 0.394 0.524 0.511 1.106 0.071 0.336-0.074 0.504-0.179 0.586 0 0 0.043 0.093 0.058 0.226 0.016 0.137-0.027 0.297-0.074 0.406-0.109-0.027-0.23-0.105-0.32-0.218-0.094-0.11-0.125-0.25-0.125-0.25s-0.434 0.047-0.578-0.75c-0.043-0.223-0.047-0.715-0.004-0.95 0.058-0.32-0.028-0.394-0.129-0.414-0.121-0.027-0.207 0.02-0.274 0.223-0.066 0.203-0.296 0.703-0.488 0.988-0.23 0.336-0.551 0.395-0.793 0.313-0.074 0.117-0.172 0.168-0.269 0.207-0.098 0.039-0.184 0.055-0.27 0.047-0.039-0.133-0.047-0.258-0.015-0.379 0.035-0.125 0.101-0.215 0.148-0.289-0.094-0.242 0.004-0.551 0.195-0.782 0.192-0.234 0.516-0.437 0.985-0.71 0.117-0.071 0.254-0.188 0.207-0.332-0.051-0.149-0.18-0.176-0.364-0.129-0.324 0.082-0.726 0.144-1.332 0.058-0.246-0.035-0.41-0.219-0.457-0.398 0 0-0.156 0.008-0.265-0.035-0.16-0.067-0.262-0.192-0.262-0.192s0.098-0.133 0.234-0.195c0.125-0.055 0.286-0.059 0.286-0.059s0.019-0.359 0.496-0.425c0.929-0.129 1.808 0.179 2.097 0.265 0.239-0.539 0.547-1.953 0.407-2.765-0.145-0.84-1.254-0.61-1.645-1.395-0.492-0.98-0.383-2.473-1.055-2.598-1.105-0.211-0.211 0.657-4.109 1.614-1.195 0.293-2.129 0.125-2.793 0.812-0.262 0.27-0.715 1.524-1.352 2.34-1.117 1.434-1.961 1.848-1.961 1.848 0.161 0.066 0.778 0.347 1.118 0.761 0.117 0.141 0.164 0.426 0.144 0.582 0.082 0.075 0.129 0.137 0.176 0.243 0.051 0.101 0.082 0.214 0.105 0.332-0.125 0.011-0.242 0-0.343-0.036-0.106-0.035-0.227-0.109-0.227-0.109-0.133 0.113-0.355 0.16-0.637 0.027-0.418-0.207-0.628-0.504-0.785-0.726-0.136-0.192-0.289-0.215-0.39-0.141-0.106 0.071-0.145 0.203-0.036 0.371 0.165 0.258 0.395 0.528 0.512 1.106 0.071 0.34-0.074 0.508-0.179 0.59 0 0 0.039 0.093 0.054 0.226 0.016 0.133-0.023 0.297-0.074 0.406-0.106-0.031-0.227-0.105-0.32-0.218-0.09-0.114-0.125-0.254-0.125-0.254s-0.434 0.051-0.578-0.75c-0.04-0.223-0.047-0.715-0.004-0.946 0.058-0.324-0.028-0.394-0.129-0.418-0.117-0.023-0.203 0.024-0.27 0.223-0.066 0.203-0.297 0.707-0.488 0.988-0.234 0.34-0.555 0.395-0.797 0.317-0.074 0.113-0.172 0.168-0.266 0.207-0.101 0.035-0.183 0.055-0.273 0.051-0.035-0.137-0.043-0.262-0.012-0.387 0.032-0.125 0.102-0.211 0.149-0.285-0.098-0.246 0-0.555 0.191-0.785 0.195-0.231 0.52-0.438 0.984-0.711 0.122-0.071 0.254-0.188 0.208-0.332-0.047-0.149-0.176-0.172-0.364-0.125-0.324 0.074-0.726 0.14-1.332 0.054-0.242-0.031-0.406-0.218-0.457-0.398 0 0-0.152 0.008-0.262-0.035-0.164-0.063-0.265-0.192-0.265-0.192s0.097-0.132 0.234-0.195c0.125-0.051 0.285-0.059 0.285-0.059s0.098-0.378 0.547-0.441c1.227-0.164 2.285 0.27 2.285 0.27s1.481-0.985 1.946-1.657c0.363-0.531 0.664-1.168 0.765-1.738 0.125-0.707-0.078-0.777-0.293-0.945-0.3-0.223-0.781-0.528-1.375-1.227-0.34-0.398-0.785-1.383-0.8-2.351-0.477-0.418-1.094-1.141-1.532-1.711 0.012 0.254 0.035 0.769-0.179 1.328-0.063 0.172-0.325 0.316-0.477 0.359-0.039 0.102-0.078 0.176-0.156 0.258-0.074 0.086-0.168 0.156-0.266 0.223-0.058-0.11-0.094-0.219-0.101-0.328-0.008-0.11 0.011-0.247 0.011-0.247-0.152-0.082-0.285-0.269-0.269-0.582 0.023-0.461 0.215-0.773 0.355-1.004 0.129-0.199 0.09-0.351-0.019-0.417-0.106-0.067-0.246-0.047-0.356 0.117-0.175 0.25-0.332 0.566-0.82 0.902-0.285 0.195-0.492 0.129-0.609 0.063 0 0-0.071 0.074-0.188 0.14-0.117 0.067-0.285 0.094-0.402 0.094-0.016-0.113 0.008-0.254 0.074-0.383s0.187-0.215 0.187-0.215-0.218-0.375 0.461-0.824c0.188-0.125 0.641-0.32 0.872-0.375 0.32-0.074 0.351-0.176 0.332-0.281-0.024-0.117-0.098-0.176-0.309-0.16-0.215 0.019-0.766 0.004-1.102-0.067-0.402-0.078-0.578-0.351-0.601-0.605-0.137-0.024-0.223-0.09-0.293-0.168-0.074-0.074-0.121-0.149-0.153-0.231 0.11-0.09 0.219-0.14 0.348-0.16 0.129-0.019 0.235 0.008 0.324 0.024 0.184-0.184 0.504-0.215 0.797-0.125 0.285 0.082 0.602 0.3 1.035 0.625 0.114 0.082 0.274 0.16 0.387 0.062 0.117-0.105 0.09-0.23-0.023-0.387-0.2-0.265-0.414-0.613-0.575-1.203-0.066-0.238 0.043-0.465 0.188-0.574 0 0-0.066-0.141-0.07-0.258-0.004-0.176 0.074-0.316 0.074-0.316s0.164 0.035 0.273 0.14c0.094 0.094 0.164 0.239 0.164 0.239s0.461-0.098 0.688 0.328c0.441 0.82 0.363 1.469 0.316 1.734 0.336 0.629 0.676 0.934 1.082 1.321 0.235 0.222 0.614 0.445 1.059 0.664 0.289-0.457 0.687-0.891 1.195-1.387 0.594-0.582 1.016-0.836 1.457-1.242 0.528-0.489 0.793-0.981 0.793-0.981s-0.906-0.273-1.855 0.02c-0.106-0.172-0.309-0.543-0.133-0.781 0.711-0.293 1.766-0.247 2.246-0.098 0.16-0.25 0.484-0.86 0.098-1.192-0.489-0.421-1.735-0.519-2.625-0.054-0.219-0.117-0.532-0.547-0.321-1.02-0.484-0.523-0.168-0.699 0.004-0.769 0.559-0.243 1.02-0.153 1.535-0.176 0.008-0.207 0.008-0.324 0.106-0.567 0.238-0.593 1.781-0.406 2.359-0.41 0.399-0.004 0.735-0.078 1.074-0.144 0.461-0.098 0.485 0.363 0.364 0.547l-0.305 0.41c0.461 0.183 0.941 0.465 1.113 0.969 0.137 0.386 0.036 0.824 0.137 1.171 0.109 0.395 0.317 0.532 0.496 0.86 0.278 0.512 0.332 0.906 0.399 1.449 0.054 0.469-0.403 0.473-0.578 0.336-0.098-0.074-0.379-0.441-0.684-0.402-0.195 0.019-0.344 0.297-0.418 0.5 0 0 0.434 0.777 0.574 1.445 0.121 0.57 0.07 1.039 0.012 1.504-0.059 0.465-0.535 0.34-0.652 0.16-0.094-0.145-0.243-0.508-0.551-0.555-0.324-0.043-0.61 0.309-0.649 0.672-0.043 0.391 0 0.731 0.215 1.039 0.942 1.383 5.258-1.238 7.125 0.246 0.113-0.5 0.172-1.031 0.067-1.484-0.227-0.996-1.946-1.473-2.758-2.609v-0.004c-0.157-0.231-0.285-0.485-0.356-0.774-0.312-1.328 0.578-3.176 1.035-4.008-0.355-0.566-0.191-1.687 0.012-2.175 0.242-0.59 0.442-0.887 0.727-1.285 0.289-0.399 1-0.348 1-0.11 0 0-0.828 0.965-0.516 1.301 0.277 0.301 1.805-0.75 0.695 1.59-0.398 0.832-0.921 1.094-1.359 1.031-0.453 0.902-1.016 2.324-0.75 3.387 0.109 0.429 0.383 0.754 0.731 1.043h0.003c0.871 0.718 2.196 1.195 2.469 2.5 0.16 0.777-0.066 1.808-0.297 2.554 0.332 0.75 0.348 1.579 0.547 2.286 0.102 0.281 0.305 0.73 0.641 0.695 0.301-0.035 0.457-0.344 0.578-0.524 0.152-0.23 0.566-0.273 0.637 0.192 0.07 0.465 0.242 0.918 0.242 1.422-0.004 2.011-0.653 3.597-1.145 4.832 0 0 0.575 0.144 1.367 0.683 0.559 0.383 0.399 0.719 0.379 0.879 0.079 0.071 0.129 0.137 0.176 0.239 0.047 0.105 0.082 0.218 0.102 0.332"/>
<path d="m29.332 28.859c1.125 0.473 2.516-0.257 2.516-0.414-1.727 0.254-2.368-0.234-1.953-1.086-1.235 0.149-1.133 1.258-0.563 1.5"/>
<path d="m38.359 71.555c0.598-0.356 1.325-0.758 1.743-1.102 0.515-0.426 1.222-1.355 1.226-1.715-0.797-0.902-0.664-1.797-0.707-2.648-0.012-0.188-0.25-0.391-0.582-0.227-0.914 0.442-1.977 0.77-1.977 0.77s-0.222 1.32 0.075 1.629c0.304 0.324 1 0.211 0.945 0.683-0.035 0.305-0.484 0.828-0.777 1.055-0.489 0.391-1.082 0.719-1.383 0.863 0 0-0.902-0.32-2.121-0.207-0.481 0.047-0.508 0.438-0.508 0.438s-0.16 0.008-0.281 0.062c-0.141 0.059-0.239 0.196-0.239 0.196s0.102 0.125 0.266 0.191c0.109 0.043 0.266 0.035 0.266 0.035 0.047 0.176 0.211 0.36 0.453 0.395 0.605 0.086 1.008 0.023 1.332-0.055 0.183-0.047 0.312-0.02 0.359 0.125 0.051 0.145-0.086 0.262-0.203 0.332-0.469 0.273-0.793 0.477-0.984 0.711-0.192 0.23-0.289 0.539-0.192 0.781-0.047 0.074-0.117 0.164-0.148 0.285-0.035 0.125-0.027 0.25 0.008 0.383 0.093 0.004 0.175-0.008 0.273-0.047s0.195-0.09 0.27-0.207c0.242 0.082 0.562 0.024 0.793-0.312 0.195-0.285 0.422-0.785 0.488-0.989 0.066-0.203 0.152-0.246 0.269-0.222 0.106 0.023 0.188 0.09 0.129 0.414-0.043 0.234-0.035 0.726 0.004 0.949 0.145 0.797 0.582 0.75 0.582 0.75s0.032 0.137 0.121 0.25c0.09 0.113 0.211 0.188 0.321 0.219 0.05-0.11 0.09-0.274 0.074-0.406-0.016-0.133-0.059-0.227-0.059-0.227 0.11-0.082 0.246-0.25 0.184-0.586-0.121-0.582-0.348-0.848-0.512-1.105-0.105-0.168-0.07-0.297 0.035-0.375 0.102-0.071 0.254-0.051 0.391 0.144 0.152 0.223 0.363 0.52 0.781 0.723 0.285 0.133 0.508 0.086 0.641-0.024 0 0 0.121 0.075 0.223 0.106 0.101 0.039 0.218 0.051 0.339 0.039-0.019-0.117-0.05-0.231-0.097-0.336-0.047-0.102-0.098-0.168-0.18-0.238 0.02-0.157-0.012-0.453-0.145-0.582-0.46-0.469-1.496-0.918-1.496-0.918"/>
<path d="m34.715 53.156c-0.387 0.278-1.07-0.629-1.07-0.629 0.316-0.293 0.652-0.539 0.976-0.203 0.238 0.25 0.402 0.614 0.094 0.832m12.32 20.035c-0.047-0.101-0.097-0.168-0.176-0.238 0.02-0.16 0.18-0.496-0.379-0.875-0.789-0.543-1.367-0.687-1.367-0.687 0.492-1.235 1.141-2.821 1.145-4.829 0-0.507-0.172-0.96-0.242-1.425-0.071-0.465-0.485-0.422-0.637-0.192-0.121 0.18-0.277 0.489-0.582 0.524-0.332 0.035-0.535-0.414-0.637-0.692-0.156-0.554-0.219-1.175-0.383-1.785 0.582-0.133 1.059-0.437 1.473-0.785 0.758-0.648 0.695-1.648 0.285-2.449-0.332-0.641-0.75-0.895-2.773-1.645-0.805-0.301-1.391-0.648-1.805-1.105-0.156-0.18-0.312-0.41-0.418-0.625-0.211-0.426-0.051-0.914 0.305-1.242 0.082-0.075 0.258-0.2 0.465-0.34 0.621 0.453 2.316 0.215 2.972-0.02 0.762-0.269 1.344-0.613 1.883-0.922 0.539-0.316 0.453-0.945 0.16-0.945 0 0-1.976 0.836-2.316 0.508-0.305-0.301 0.387-1.371-1.715-0.445-0.754 0.335-1.313 0.793-1.277 1.234-0.735 0.394-1.442 1.039-1.336 1.906 0.031 0.285 0.172 0.649 0.367 0.938h0.008c0.574 0.82 1.718 1.437 2.968 1.843 1.196 0.395 1.661 0.61 1.868 1.407 0.273 1.039-0.293 1.675-1.434 1.851-0.141-0.254-0.301-0.465-0.449-0.617-1.617-1.668-6.281 1.129-7.223-0.254-0.215-0.308-0.258-0.648-0.215-1.039 0.035-0.363 0.325-0.715 0.649-0.672 0.308 0.047 0.457 0.41 0.551 0.551 0.117 0.184 0.593 0.309 0.652-0.156 0.058-0.465 0.109-0.934-0.012-1.504-0.14-0.668-0.574-1.445-0.574-1.445 0.074-0.204 0.223-0.481 0.418-0.5 0.305-0.036 0.586 0.328 0.684 0.402 0.175 0.137 0.632 0.133 0.578-0.336-0.067-0.543-0.121-0.938-0.399-1.449-0.179-0.328-0.387-0.465-0.496-0.856-0.101-0.351 0-0.789-0.137-1.176-0.172-0.5-0.652-0.785-1.113-0.972l0.305-0.406c0.121-0.184 0.097-0.645-0.364-0.547-0.339 0.066-0.675 0.14-1.074 0.144-0.578 0.004-2.121-0.183-2.359 0.406-0.098 0.247-0.098 0.364-0.106 0.571-0.515 0.023-0.976-0.067-1.535 0.176-0.172 0.074-0.488 0.25-0.004 0.769-0.211 0.473 0.102 0.902 0.321 1.024 0.89-0.469 2.136-0.372 2.625 0.05 0.386 0.332 0.062 0.942-0.098 1.192-0.48-0.145-1.535-0.196-2.246 0.097-0.176 0.239 0.023 0.606 0.133 0.782 0.949-0.293 1.855-0.02 1.855-0.02s-0.265 0.496-0.793 0.981c-0.441 0.406-0.863 0.66-1.457 1.242-0.578 0.566-1.019 1.051-1.308 1.582-0.735-0.18-1.426-0.387-1.809-0.653-0.465-0.312-0.852-0.55-1.289-1.117 0-0.269-0.027-0.926-0.602-1.66-0.296-0.379-0.73-0.207-0.73-0.207s-0.094-0.133-0.207-0.207c-0.125-0.086-0.289-0.094-0.289-0.094s-0.051 0.153-0.02 0.324c0.02 0.118 0.11 0.247 0.11 0.247-0.121 0.132-0.192 0.371-0.086 0.593 0.254 0.559 0.523 0.864 0.765 1.094 0.141 0.129 0.188 0.25 0.09 0.375-0.097 0.117-0.269 0.063-0.39 0.004-0.485-0.246-0.832-0.41-1.129-0.445-0.301-0.035-0.614 0.047-0.766 0.258-0.09 0-0.199-0.012-0.32 0.031-0.125 0.039-0.227 0.113-0.317 0.215 0.043 0.078 0.102 0.14 0.188 0.203 0.086 0.062 0.18 0.117 0.32 0.117 0.063 0.246 0.281 0.484 0.692 0.496 0.343 0.012 0.886-0.066 1.097-0.121 0.203-0.051 0.289-0.004 0.332 0.109 0.035 0.098 0.02 0.207-0.281 0.332-0.219 0.09-0.629 0.364-0.797 0.516-0.594 0.555-0.316 0.891-0.316 0.891s-0.106 0.101-0.149 0.242c-0.047 0.14-0.043 0.281-0.011 0.386 0.117-0.015 0.277-0.07 0.382-0.156 0.102-0.086 0.161-0.172 0.161-0.172 0.125 0.047 0.343 0.078 0.593-0.16 0.422-0.414 0.524-0.754 0.657-1.031 0.082-0.18 0.214-0.219 0.332-0.172 0.117 0.047 0.179 0.188 0.089 0.406-0.101 0.25-0.238 0.59-0.183 1.051 0.035 0.313 0.195 0.473 0.363 0.527 0 0 0.004 0.137 0.027 0.247 0.024 0.105 0.082 0.207 0.157 0.304 0.086-0.078 0.164-0.168 0.226-0.261 0.063-0.094 0.086-0.172 0.106-0.278 0.144-0.07 0.379-0.258 0.414-0.437 0.121-0.59 0.008-1.09-0.047-1.34 0.66 0.613 1.633 1.406 2.152 1.617 0.031 0.016 0.059 0.027 0.09 0.039 0.09 0.863 0.477 1.688 0.781 2.043 0.594 0.699 1.075 1.004 1.375 1.23 0.215 0.165 0.418 0.235 0.293 0.942-0.101 0.57-0.402 1.203-0.765 1.738-0.465 0.672-1.946 1.656-1.946 1.656s-1.058-0.429-2.285-0.269c-0.449 0.062-0.547 0.441-0.547 0.441s-0.16 0.008-0.285 0.059c-0.137 0.062-0.234 0.195-0.234 0.195s0.101 0.129 0.265 0.192c0.11 0.046 0.262 0.039 0.262 0.039 0.047 0.175 0.215 0.363 0.457 0.398 0.606 0.086 1.008 0.02 1.332-0.058 0.188-0.047 0.317-0.024 0.364 0.125 0.046 0.148-0.086 0.261-0.208 0.332-0.464 0.273-0.792 0.48-0.984 0.71-0.191 0.231-0.289 0.54-0.191 0.786-0.047 0.074-0.117 0.16-0.149 0.285-0.031 0.125-0.023 0.25 0.012 0.387 0.09 0.003 0.172-0.016 0.273-0.051 0.094-0.039 0.192-0.094 0.266-0.207 0.242 0.078 0.563 0.023 0.797-0.313 0.191-0.285 0.422-0.789 0.488-0.992 0.067-0.199 0.153-0.246 0.27-0.223 0.101 0.024 0.187 0.094 0.129 0.418-0.043 0.231-0.036 0.723 0.004 0.946 0.144 0.8 0.578 0.75 0.578 0.75s0.035 0.14 0.125 0.254c0.093 0.113 0.214 0.187 0.32 0.218 0.051-0.109 0.09-0.273 0.074-0.406-0.015-0.133-0.054-0.226-0.054-0.226 0.105-0.083 0.25-0.25 0.179-0.59-0.117-0.578-0.347-0.848-0.512-1.106-0.109-0.168-0.07-0.297 0.036-0.375 0.101-0.07 0.254-0.047 0.39 0.145 0.157 0.222 0.367 0.519 0.785 0.722 0.282 0.137 0.504 0.09 0.637-0.023 0 0 0.121 0.074 0.227 0.109 0.101 0.035 0.218 0.047 0.343 0.035-0.023-0.117-0.054-0.23-0.105-0.332-0.047-0.105-0.094-0.168-0.176-0.238 0.02-0.16-0.027-0.445-0.144-0.586-0.34-0.414-0.957-0.691-1.118-0.761 0 0 0.844-0.415 1.965-1.852 0.633-0.813 1.086-2.066 1.348-2.336 0.664-0.688 1.598-0.52 2.793-0.812 3.898-0.958 3.004-1.825 4.109-1.614 0.672 0.125 0.563 1.617 1.055 2.598 0.391 0.785 1.5 0.555 1.645 1.398 0.14 0.809-0.168 2.223-0.407 2.762-0.289-0.086-1.168-0.394-2.097-0.266-0.477 0.067-0.496 0.426-0.496 0.426s-0.161 0.008-0.286 0.059c-0.136 0.058-0.234 0.195-0.234 0.195s0.102 0.125 0.262 0.192c0.109 0.042 0.265 0.035 0.265 0.035 0.047 0.175 0.211 0.363 0.457 0.398 0.606 0.086 1.004 0.024 1.332-0.059 0.184-0.046 0.313-0.019 0.364 0.129 0.047 0.145-0.09 0.258-0.207 0.332-0.469 0.274-0.793 0.477-0.985 0.711-0.191 0.231-0.289 0.539-0.195 0.782-0.047 0.074-0.113 0.164-0.148 0.289-0.032 0.121-0.024 0.246 0.015 0.383 0.086 0.003 0.172-0.012 0.27-0.051 0.097-0.039 0.195-0.09 0.269-0.207 0.242 0.082 0.563 0.023 0.793-0.313 0.192-0.285 0.426-0.785 0.488-0.988 0.067-0.203 0.153-0.25 0.274-0.223 0.101 0.024 0.187 0.09 0.129 0.414-0.043 0.235-0.039 0.727 0.004 0.95 0.14 0.796 0.578 0.75 0.578 0.75s0.031 0.14 0.125 0.25c0.09 0.113 0.211 0.187 0.32 0.218 0.047-0.109 0.09-0.269 0.074-0.406-0.015-0.133-0.058-0.227-0.058-0.227 0.105-0.082 0.25-0.25 0.179-0.585-0.117-0.582-0.343-0.848-0.511-1.106-0.106-0.168-0.067-0.301 0.035-0.375 0.101-0.07 0.254-0.051 0.391 0.145 0.156 0.218 0.367 0.519 0.785 0.722 0.285 0.137 0.504 0.09 0.64-0.023 0 0 0.118 0.07 0.223 0.109 0.102 0.035 0.219 0.043 0.344 0.035-0.02-0.117-0.055-0.23-0.102-0.336"/>
<path d="m29.332 55.281c1.133 0.453 2.516-0.258 2.516-0.414-1.727 0.254-2.368-0.234-1.953-1.086-1.235 0.149-1.18 1.254-0.563 1.5"/>
</g>
<g>
<path d="m66.352 33.758c-0.04-0.52-0.395-0.778-2.204-0.426-2.168 0.309-3.281-0.551-2.648-1.527-1.641 0.093-1.707 2.308 0.07 2.367 1.782 0.062 2.84-0.699 4.782-0.414"/>
<path d="m68.723 54.543c-0.293-0.098-1.192-0.383-1.192-0.383s-1.523 1.906-4.304 2.863c-2.34 0.809-3.391 1.493-3.922 2.379-0.45 0.754-0.684 1.493-0.715 1.953-0.059 0.782 0.008 1.293 0.101 1.915 0.094 0.648 0.825 0.574 0.926 0.117 0.071-0.336 0.285-0.711 0.621-0.75 0.336-0.035 0.649 0.332 0.649 0.332s-0.328 1.367-1.36 2.707c-0.332 0.422-1.804 1.976-2.355 2.258-0.684-0.317-1.594-0.653-2.047-0.7-0.367-0.043-0.934-0.07-1.109 0.211-0.246-0.015-0.493 0.106-0.704 0.278 0.2 0.25 0.571 0.375 0.571 0.375 0.062 0.445 0.48 0.652 0.972 0.695 0.512 0.051 0.93 0.031 1.149 0.016 0.226-0.016 0.359 0.109 0.387 0.253 0.027 0.161-0.075 0.336-0.321 0.372-1.273 0.183-1.73 0.828-1.691 1.515-0.141 0.16-0.344 0.485-0.305 0.817 0.203 0.004 0.602-0.071 0.805-0.258 0.832 0.113 1.426-0.766 1.664-1.223 0.121-0.23 0.234-0.344 0.422-0.262 0.156 0.071 0.191 0.215 0.097 0.477-0.117 0.312-0.25 0.727-0.257 1.109-0.004 0.59 0.226 0.899 0.55 1.063 0 0 0.207 0.508 0.457 0.625 0.157-0.242 0.137-0.684 0.137-0.684 0.285-0.156 0.43-0.644 0.371-1.097-0.039-0.286-0.23-0.684-0.382-1.012-0.098-0.207-0.059-0.375 0.074-0.438 0.168-0.078 0.32 0.008 0.453 0.309 0.082 0.191 0.312 0.621 0.48 0.785 0.231 0.223 0.735 0.524 1.098 0.309 0 0 0.324 0.211 0.66 0.172-0.004-0.286-0.109-0.481-0.273-0.684 0.097-0.328 0.109-0.691-0.348-1.121-0.379-0.359-0.828-0.691-1.324-0.988 0.945-0.313 2.433-1.422 3.004-2.094 0.488-0.574 1.008-1.586 1.008-1.586 0.425 0.098 0.546 0.566 0.574 0.875 0.023 0.258 0.539 0.379 0.664-0.082 0.121-0.457 0.207-0.918 0.191-1.512-0.011-0.387-0.058-1.226-0.437-1.929 0.101-0.215 0.25-0.399 0.445-0.379 0.313 0.019 0.523 0.39 0.605 0.574 0.258 0.555 1.024 0.367 1-0.199-0.015-0.477-0.015-0.844-0.175-1.477-0.075-0.297-0.41-0.914-0.692-1.148 0.168-1.075 0.871-1.11 2.289-2.246 0.528-0.418 1.274-1.032 1.809-1.731 0.16-0.207 0.414-0.613 0.375-0.93-0.023-0.218-0.383-0.336-0.695-0.441"/>
<path d="m66.441 30.023s0.778 1.262 1.375 0.875c0.426-0.273 0.215-0.761-0.086-1.093-0.41-0.465-0.867-0.157-1.289 0.218m10.856 22.317c-0.25 1.265-1.219 2.098-2.539 2.637 0.066 2.402-1.406 3.574-1.434 4.41-0.019 0.617 0.543 0.804 1.164 1.648 0.598 0.809 0.824 2.133 0.653 3.18-0.129 0.773-0.301 1.18-0.602 1.726-0.301 0.555-0.961 0.332-0.926-0.093 0.11-1.184-0.73-0.774-0.73-0.774s0.031 1.25-0.828 2.934c-0.516 1.008-1.969 2.336-1.969 2.336s1.191 0.187 1.547 0.344c0.578 0.25 0.699 0.707 0.707 1.046 0.215 0.145 0.39 0.328 0.48 0.602-0.258 0.102-0.699 0.004-0.699 0.004s-0.422 0.383-1.176-0.074c-0.273-0.168-0.5-0.422-0.636-0.575-0.196-0.218-0.379-0.238-0.512-0.117-0.109 0.094-0.129 0.278 0.035 0.457 0.238 0.266 0.555 0.68 0.656 0.864 0.157 0.285 0.239 0.945 0.008 1.175 0 0 0.172 0.477 0.094 0.75-0.274-0.031-0.656-0.496-0.656-0.496-0.36-0.058-0.707-0.414-0.805-0.828-0.113-0.473-0.051-0.863-0.047-1.195 0.008-0.309-0.07-0.453-0.266-0.469-0.234-0.016-0.32 0.137-0.347 0.367-0.067 0.61-0.492 1.59-1.321 1.727-0.14 0.238-0.445 0.41-0.64 0.469-0.137-0.309-0.039-0.676 0.051-0.872-0.243-0.644 0.05-1.296 1.164-1.949 0.16-0.094 0.234-0.277 0.148-0.426-0.074-0.128-0.215-0.164-0.41-0.097-0.211 0.066-0.582 0.172-1.09 0.273-0.48 0.102-0.941 0.028-1.137-0.379 0 0-0.386-0.007-0.652-0.191 0.152-0.223 0.348-0.414 0.59-0.469 0.082-0.32 0.582-0.551 0.949-0.594 1.012-0.109 2.305 0.121 2.305 0.121s0.664-0.648 1.297-1.671c0.812-1.321 0.695-2.766 0.695-2.766s-0.164-0.238-0.438-0.25c-0.312-0.02-0.535 0.293-0.675 0.434-0.157 0.164-0.598 0.179-0.598-0.297 0-0.289 0.043-0.727 0.234-1.289 0.121-0.371 0.317-0.696 0.621-1.137-0.16-0.215-0.441-0.406-0.621-0.356-0.253 0.075-0.39 0.27-0.484 0.524-0.125 0.344-0.684 0.406-0.801-0.106-0.105-0.464-0.133-0.898-0.066-1.503 0.117-1.047 0.281-2.118 1.457-3.723 0.562-0.77 1.898-2.356 1.926-3.313 0.027-0.906-3.043-1.011-5.325-2.523-1.875-1.242-2.312-3.219-2.312-3.219s-0.672 0.875-2.137 1.754c-0.969 0.582-2.804 1.016-2.804 1.016 0.328 0.422 0.574 0.922 0.718 1.347 0.223 0.657 0.063 1.016-0.179 1.254 0.046 0.258-0.039 0.539-0.176 0.789-0.25-0.16-0.414-0.527-0.414-0.527-0.422 0.016-0.641-0.234-0.754-0.742-0.067-0.289-0.106-0.77-0.102-0.977 0.008-0.32-0.101-0.465-0.261-0.465-0.141 0-0.25 0.118-0.266 0.329-0.02 0.359-0.086 0.867-0.149 1.07-0.097 0.308-0.378 0.797-0.707 0.797 0 0-0.21 0.488-0.468 0.625-0.164-0.223-0.094-0.817-0.094-0.817-0.211-0.168-0.332-0.539-0.035-1.199 0.215-0.496 0.379-0.625 0.605-0.867 0.207-0.223 0.293-0.375 0.149-0.524-0.114-0.117-0.223-0.078-0.414 0.047-0.43 0.293-1.493 0.778-2.172 0.278-0.266 0.066-0.531-0.063-0.707-0.16 0.129-0.313 0.406-0.532 0.66-0.571 0.293-0.437 0.922-0.699 2.215-0.515 0.172 0.023 0.371 0.003 0.426-0.172 0.05-0.168 0-0.321-0.223-0.422-0.199-0.094-0.539-0.262-0.965-0.551-0.41-0.281-0.676-0.66-0.516-1.082 0 0-0.261-0.289-0.316-0.605 0.266-0.047 0.539-0.036 0.746 0.097 0.289-0.16 0.789 0 1.121 0.297 0.34 0.305 0.84 0.914 1.289 1.52 0 0 1.692-0.219 3.024-1.692 0.82-0.906 0.988-2.375 1.035-3.668 0.008-0.215-0.082-0.422-0.258-0.5-0.285-0.125-0.602 0.09-0.781 0.18-0.203 0.098-0.629-0.039-0.461-0.484 0.164-0.45 0.293-0.684 0.68-1.133 0.218-0.246 0.71-0.754 1.335-1.098-0.535-0.398-1.148-0.953-1.707-1.5-0.48-0.469-1.281-1.695-1.691-2.652-0.094 0.304-0.184 0.726-0.293 1-0.238 0.582-0.535 0.699-0.875 0.73-0.133 0.223-0.375 0.383-0.641 0.492-0.089-0.289 0.047-0.718 0.047-0.718-0.332-0.258-0.265-0.664-0.09-1.086 0.153-0.367 0.364-0.594 0.508-0.742 0.239-0.243 0.262-0.418 0.129-0.532-0.129-0.113-0.293-0.082-0.437 0.094-0.227 0.281-0.629 0.613-0.805 0.723-0.273 0.175-0.906 0.269-1.156 0.058 0 0-0.438 0.192-0.719 0.133 0.012-0.273 0.414-0.641 0.414-0.641 0.031-0.363 0.102-0.531 0.746-0.867 0.293-0.152 0.789-0.261 1.117-0.25 0.352 0.008 0.496-0.144 0.5-0.3 0-0.184-0.152-0.297-0.41-0.29-0.613 0.032-1.629-0.308-1.824-1.128-0.25-0.122-0.371-0.387-0.441-0.579 0.296-0.156 0.671-0.082 0.875-0.011 0.625-0.285 1.296-0.035 2.023 1.027 0.191 0.277 0.68 0.129 0.504-0.297-0.078-0.207-0.211-0.57-0.352-1.066-0.132-0.477-0.09-0.942 0.301-1.16 0 0-0.015-0.391 0.145-0.664 0.234 0.132 0.437 0.316 0.511 0.55 0.325 0.063 0.621 0.551 0.707 0.93 0.09 0.395 0.192 1.109 0.024 1.996 0.242 0.863 0.82 1.59 1.242 2.055 0.762 0.84 2.301 1.804 3.371 2.426 0.121-0.133 0.25-0.266 0.391-0.403 0.113-0.109 0.09-0.297 0.015-0.426-0.156-0.269-0.539-0.277-0.738-0.316-0.219-0.039-0.476-0.383-0.086-0.664 0.387-0.273 0.828-0.426 1.406-0.559 0.391-0.089 1.129-0.195 1.977 0.028 0 0 0.477-0.555 0.242-0.735-0.867-0.672-2.535-0.254-2.535-0.254-0.652-0.89-0.074-1.128 0.844-1.16 0.758-0.027 1.597 0.098 2.48 0.418 0.59-0.468 0.41-1.859-0.406-2.242-1.793-0.848-3.176 0.02-3.176 0.02-0.398-0.063-0.769-0.258-0.961-0.692-0.218-0.488-0.07-1.031-0.07-1.031-0.414-0.293-0.402-1.211 2.297-1.02 0 0-0.278-0.761-0.071-1.371 0.278-0.812 3.211-0.382 3.887-0.531 0.168-0.039 0.496-0.156 0.664-0.203 0.422-0.125 0.563 0.281 0.426 0.519-0.227 0.395-0.305 0.907-0.305 0.907s1.102 0.285 2.055 1.457c0.516 0.629 0.711 1.629 0.805 2.097 0.097 0.465-0.383 0.504-0.555 0.368-0.156-0.125-0.414-0.407-0.723-0.348-0.183 0.035-0.39 0.348-0.453 0.543 1.067 0.57 1.457 1.859 1.543 2.398 0.094 0.582 0.071 1.051 0.008 1.524-0.059 0.469-0.527 0.351-0.648 0.164-0.106-0.168-0.258-0.52-0.567-0.563-0.281-0.039-0.476 0.192-0.597 0.453 0.418 0.633 0.566 1.383 0.609 1.75 0.074 0.59 0.035 1.055-0.043 1.524s-0.543 0.336-0.652 0.144c-0.106-0.175-0.243-0.531-0.551-0.585-0.293-0.051-0.539 0.292-0.668 0.558 0.648 0.652 0.875 1.625 0.945 2.059 0.094 0.586 0.067 1.05 0.008 1.523s-0.543 0.438-0.648 0.168c-0.09-0.234-0.231-0.551-0.536-0.594-0.175-0.027-0.433 0.153-0.543 0.282-0.109 0.648 0.032 1.234 0.145 1.812 0.199 0.992 0.727 1.942 1.977 2.848 1.386 1.011 3.109 2.66 3.675 4.664 1.192-0.531 2.278-1.668 0.891-3.578-1.348-1.848-2.406-2.434-2.977-4.598-0.328-1.262-0.113-2.582 0.965-3.965-0.148-0.222-0.219-0.508-0.238-0.824-0.035-0.559 0.023-1.34 0.551-2.223 0.476-0.8 1.336-1.855 2.617-2.433 0.32 0.191 0.348 0.804 0.277 0.937-0.386 0.746-1.867 1.813-1.886 2.254-0.012 0.246 0.582 0.617 0.792 0.547 0.403-0.137 0.86-1.219 1.028-1.441 0.133-0.18 0.637-0.18 0.598 0.296-0.04 0.473-0.114 0.934-0.325 1.489-0.211 0.543-0.918 1.621-2.336 1.824-0.152 0.023-0.293 0.019-0.418 0-0.843 1.156-0.714 2.332-0.593 3.008 0.246 1.398 1.187 2.183 2.414 3.761 1.105 1.418 1.672 2.223 1.367 3.778"/>
<path d="m55.551 21.105c-0.418-0.644-0.981-1.281-1.442-1.957-0.515-0.742-0.425-1.699 0.477-1.875 0.277-0.054 0.652 0.063 0.922 0.336 0.023 0.028 0.062 0.028 0.09 0 0.269-0.273 0.644-0.39 0.922-0.336 0.906 0.176 0.992 1.133 0.476 1.875-0.461 0.676-1.019 1.313-1.445 1.957"/>
<path d="m55.555 83.344c-0.422-0.649-0.985-1.285-1.446-1.953-0.515-0.75-0.429-1.707 0.477-1.879 0.277-0.055 0.652 0.062 0.922 0.336 0.023 0.023 0.062 0.023 0.09 0 0.269-0.274 0.644-0.391 0.922-0.336 0.906 0.172 0.992 1.129 0.476 1.879-0.461 0.668-1.019 1.304-1.441 1.953"/>
<path d="m62.188 80.281c-0.418-0.648-0.981-1.285-1.446-1.957-0.512-0.746-0.426-1.703 0.481-1.875 0.277-0.054 0.652 0.063 0.922 0.336 0.023 0.024 0.062 0.024 0.089 0 0.27-0.273 0.645-0.39 0.922-0.336 0.906 0.172 0.992 1.129 0.477 1.875-0.461 0.672-1.024 1.309-1.445 1.957"/>
<path d="m55.555 45.324c-0.422-0.648-0.985-1.285-1.446-1.957-0.515-0.746-0.425-1.703 0.477-1.879 0.277-0.054 0.652 0.063 0.922 0.34 0.023 0.024 0.062 0.024 0.09 0 0.269-0.277 0.644-0.394 0.922-0.34 0.906 0.176 0.992 1.133 0.476 1.879-0.465 0.672-1.019 1.309-1.441 1.957"/>
<path d="m62.188 24.625c-0.418-0.648-0.981-1.285-1.446-1.957-0.512-0.746-0.426-1.703 0.481-1.875 0.277-0.055 0.652 0.062 0.922 0.336 0.023 0.023 0.062 0.023 0.089 0 0.27-0.274 0.645-0.391 0.922-0.336 0.906 0.172 0.992 1.129 0.477 1.875-0.461 0.672-1.024 1.309-1.445 1.957"/>
<path d="m62.656 56.102c-0.422-0.649-0.98-1.286-1.445-1.957-0.516-0.747-0.426-1.7 0.48-1.875 0.278-0.055 0.653 0.062 0.918 0.335 0.024 0.024 0.063 0.024 0.09 0 0.27-0.273 0.645-0.39 0.922-0.335 0.906 0.175 0.992 1.128 0.481 1.875-0.465 0.671-1.024 1.308-1.446 1.957"/>
<path d="m50.016 16.793s0.355 0.035 0.539 0.105v66.461c-0.371 0.121-0.547 0.121-0.547 0.121s-0.16-0.011-0.543-0.121v-66.461c0.176-0.066 0.551-0.105 0.551-0.105"/>
<path d="m19.457 64.555c-0.07-0.219-0.152-0.434-0.219-0.649l-1.636 0.516 0.171 0.539c0.153 0.484 0.676 0.582 1.098 0.449 0.399-0.129 0.734-0.387 0.586-0.855m-2.309 0.695l-0.195-0.621-1.613 0.512c-0.32 0.101-0.313 0.238-0.172 0.687 0.18 0.563 0.613 0.942 1.297 0.723 0.562-0.176 0.863-0.727 0.683-1.301m-2.457 1.258c-0.187-0.598-0.351-1.188-0.539-1.785l-0.605-1.828 0.558-0.18 0.403 0.984 4.215-1.336-0.379-1.078 0.582-0.187c0.441 1.113 0.871 2.238 1.234 3.375 0.391 1.238 0.106 2.285-0.75 2.558-0.547 0.172-1.113-0.14-1.469-0.554 0.032 0.734-0.234 1.484-0.988 1.726-1.144 0.359-1.957-0.734-2.262-1.695"/>
<path d="m22.332 71.363l-0.156-0.297-1.961 1.032 0.129 0.246c0.324 0.617 0.968 0.656 1.488 0.383 0.457-0.239 0.832-0.735 0.5-1.364m-3.547 5.582l-0.332-1.023c-0.301-0.875 1.117-2.68 1.531-3.387l-0.129-0.246-1.644 0.863 0.258 0.668-0.531 0.278-0.692-1.387-0.844-1.527 0.528-0.282 0.523 0.817 3.934-2.074-0.567-0.997 0.543-0.285c0.317 0.528 0.707 1.192 0.953 1.582 0.09 0.141 0.547 0.907 0.7 1.196 0.929 1.769 0.621 2.593-0.258 3.058-0.785 0.414-1.453 0.278-1.988-0.406-0.125 0.227-1.516 2.293-1.508 2.465 0.008 0.269 0.019 0.262 0.117 0.578z"/>
<path d="m25.566 77.637l-1.804 0.543 0.812 1.019zm-1.937 4.668l-1.195-1.465 0.457-0.367 0.574 0.605 0.738-1.23-1.18-1.477-1.378 0.422 0.582 0.844-0.461 0.363-0.805-1.047-0.688-0.808 0.45-0.356 0.394 0.359 5.262-1.511c0.297 0.195 0.668 0.297 0.949 0.367l0.16 0.195-2.972 5.199 0.3 0.512-0.457 0.367z"/>
<path d="m33.527 84.5l-1.953 2.332c-0.894 1.078-2.14 1.066-3.445-0.02-1.219-1.019-1.621-2.414-0.871-3.308l2.09-2.5-0.723-0.695 0.379-0.454 1.312 1.129 1.446 1.18-0.375 0.449-0.793-0.57-1.938 2.32c-0.715 0.856-0.289 1.617 0.102 1.942 0.394 0.332 1.453 0.797 2.16-0.051l1.937-2.32-0.671-0.657 0.375-0.449 0.98 0.836 1.086 0.891-0.375 0.449z"/>
<path d="m41.184 88.414l-2.114 4.754-0.922-0.41-1.421-5.133-1.372 3.09 0.786 0.426-0.246 0.55-1.129-0.543-1.289-0.535 0.238-0.535 0.844 0.293 1.75-3.941c-0.067-0.231-0.329-0.383-0.868-0.621l0.25-0.559 2.176 0.965 1.305 4.648 1.242-2.793-0.785-0.425 0.238-0.54 1.141 0.52 1.269 0.551-0.238 0.539z"/>
<path d="m45.188 94.676c-0.524-0.082-0.883-0.196-1.536-0.469l-0.05 0.176-0.61-0.098 0.125-0.402 0.285-1.352 0.582 0.09c-0.093 0.762 0.356 1.305 0.989 1.406 0.64 0.098 0.98-0.203 1.05-0.652 0.082-0.531-0.769-1.016-1.445-1.668-0.523-0.492-0.941-1.09-0.832-1.789 0.16-1.008 1.059-1.461 2.363-1.258 0.36 0.055 1.075 0.238 1.34 0.328l0.121-0.234 0.547 0.086-0.277 1.773-0.582-0.09c0.023-0.687-0.289-1.113-0.922-1.211-0.652-0.101-0.875 0.387-0.914 0.649-0.078 0.508 0.578 0.961 1.211 1.519 0.597 0.543 1.16 1.165 1.039 1.934-0.168 1.078-1.152 1.469-2.484 1.262"/>
<path d="m53.438 94.875c-1.942 0.18-3.497-0.914-3.665-2.707-0.14-1.535 0.918-3.152 3.012-3.348 0.961-0.09 1.129-0.082 1.766-0.043l0.011-0.23 0.579-0.055 0.047 0.539 0.167 1.403-0.574 0.054c-0.156-0.875-0.914-1.093-1.761-1.015-0.899 0.082-1.665 1.082-1.536 2.476 0.125 1.34 1.161 2.324 2.082 2.239 0.911-0.086 1.368-0.356 1.368-0.368 0.054-0.175 0.066-0.98 0.062-1.125l0.578-0.054 0.145 1.562c-0.848 0.344-1.11 0.563-2.281 0.672"/>
<path d="m64.742 91.496l-1.683 0.719-0.223-0.543 0.867-0.449-0.726-1.762-2.594 1.074 0.73 1.758 0.922-0.289 0.223 0.543-1.633 0.648-1.648 0.707-0.223-0.543 0.859-0.445-1.707-4.121-0.914 0.305-0.226-0.543 1.668-0.664 1.613-0.696 0.226 0.543-0.863 0.434 0.715 1.73 2.59-1.07-0.715-1.73-0.926 0.304-0.226-0.543 1.621-0.644 1.672-0.715 0.222 0.543-0.871 0.437 1.703 4.121 0.93-0.293 0.227 0.543z"/>
<path d="m72.273 79.68l1.848 5.359-0.683 0.59-2.45-1.215 0.883 2.566-0.738 0.641-5.113-2.535-0.497 0.328-0.382-0.445 1.007-0.836 1.047-0.942 0.387 0.446-0.309 0.343 3.446 1.778-0.699-1.82-1.7-0.844-0.394 0.246-0.383-0.445 0.91-0.754 1.211-1.082 0.387 0.445-0.52 0.527 3.438 1.785-1.344-3.578-0.621 0.442-0.383-0.446 0.945-0.785 0.715-0.679 0.399 0.46z"/>
<path d="m79.086 78.977l-0.481 0.66-1.089 1.574-0.481-0.34 0.539-0.902-3.644-2.59-0.637 0.726-0.477-0.335 1.082-1.461 0.7-1.024 0.781-1.101-0.231-0.235 0.344-0.48 0.379 0.269 1.184 0.797-0.336 0.473-0.801-0.363-1.016 1.429 1.473 1.051 0.762-1.07-0.489-0.45 0.332-0.472 1.672 1.187-0.332 0.473-0.617-0.336-0.762 1.07 1.379 0.981c0.078 0.054 0.157 0.109 0.172 0.109 0.082-0.094 0.172-0.179 0.336-0.414 0.238-0.332 0.578-0.785 0.606-0.824 0.097-0.141 0.261-0.375 0.25-0.399-0.016-0.039-0.543-0.519-0.653-0.613l0.344-0.48 1.266 0.906z"/>
<path d="m82.824 72.691l-0.773 1.618-0.528-0.258 0.352-0.903-4-1.972-0.488 0.832-0.528-0.258 0.817-1.598 0.754-1.59 0.527 0.262-0.359 0.895 3.996 1.972 0.504-0.824 0.523 0.258z"/>
<path d="m84.441 62.551c0.161 0.051 0.399 0.137 0.672 0.226l0.207 0.063c0.395 0.098 0.774 0.18 1.094 0.078-0.223 0.699-0.191 0.644-0.293 1.246-0.098 0.637-0.109 0.875-0.344 1.617-0.75 2.391-2.472 2.922-3.984 2.449-1.348-0.425-2.559-1.929-1.867-4.132 0.191-0.621 0.508-1.34 0.711-1.743l-0.231-0.148 0.16-0.519 0.379 0.121 1.5 0.421-0.172 0.551c-0.859-0.144-1.375 0.449-1.668 1.391-0.238 0.758 0.422 2.012 1.704 2.414 1.371 0.434 2.589-0.246 2.847-1.063 0.133-0.421 0.149-0.718 0.11-1.035l-1.293-0.406-0.375 0.918-0.559-0.176 0.57-1.738 0.453-1.524 0.563 0.176z"/>
<path d="m18.137 50.891c0.047 1.961-1.153 3.437-2.949 3.48-1.547 0.039-3.086-1.133-3.137-3.25-0.024-0.965 0-1.133 0.078-1.766l-0.227-0.031-0.015-0.578 0.539-0.012 1.414-0.074 0.012 0.582c-0.883 0.094-1.153 0.84-1.133 1.696 0.019 0.906 0.965 1.742 2.367 1.71 1.34-0.035 2.398-1.003 2.375-1.933-0.02-0.918-0.262-1.395-0.273-1.395-0.168-0.07-0.973-0.132-1.118-0.144l-0.011-0.578 1.566-0.039c0.285 0.875 0.484 1.148 0.512 2.332"/>
<path d="m13.887 43.891l1.648 0.918 0.164-1.297zm4.699-1.875l-0.215 1.886-0.582-0.074 0.031-0.836-1.394 0.332-0.238 1.883 1.261 0.695 0.203-1.007 0.582 0.074-0.191 1.312-0.098 1.063-0.57-0.074-0.02-0.54-4.75-2.722c-0.062-0.348-0.25-0.688-0.398-0.942l0.031-0.25 5.797-1.504 0.156-0.578 0.586 0.075z"/>
<path d="m15.016 35.125l-0.098 0.324 2.125 0.641 0.078-0.27c0.203-0.672-0.226-1.152-0.789-1.32-0.496-0.148-1.109-0.055-1.316 0.625m6.449-1.508l-0.477 0.969c-0.402 0.836-2.683 1.137-3.476 1.352l-0.078 0.265 1.777 0.535 0.289-0.656 0.574 0.172-0.484 1.48-0.469 1.692-0.574-0.172 0.195-0.953-4.258-1.278-0.296 1.11-0.583-0.176c0.141-0.602 0.329-1.352 0.426-1.801 0.039-0.168 0.25-1.039 0.344-1.347 0.574-1.922 1.379-2.301 2.332-2.016 0.848 0.258 1.227 0.824 1.133 1.691 0.246-0.078 2.687-0.578 2.801-0.711 0.183-0.195 0.175-0.199 0.324-0.496z"/>
<path d="m18.062 27.121c-0.496 0.969 0.34 1.938 1.411 2.484 1.054 0.54 2.363 0.661 2.859-0.308 0.488-0.957-0.418-1.949-1.445-2.473-1.012-0.515-2.336-0.66-2.825 0.297m4.848 2.473c-1.031 2.011-2.89 2.23-4.215 1.554-1.32-0.671-2.238-2.308-1.211-4.32 1.016-1.992 2.868-2.219 4.192-1.543 1.289 0.66 2.25 2.317 1.234 4.309"/>
<path d="m28.082 21.473l-1.539 2.015-0.508 0.649-1.097 1.472-0.465-0.355 0.519-0.816-3.547-2.708-0.64 0.727-0.469-0.359 1.125-1.434 1.039-1.398 0.465 0.355-0.527 0.813 3.589 2.742c0.063-0.078 0.809-1.102 0.848-1.149 0.102-0.132 0.25-0.386 0.238-0.429-0.015-0.039-0.543-0.793-0.625-0.903l0.364-0.48z"/>
<path d="m27.551 14.656c-0.809 0.727-0.379 1.93 0.422 2.824 0.789 0.887 1.965 1.473 2.777 0.75 0.801-0.718 0.312-1.968-0.457-2.828-0.758-0.847-1.938-1.461-2.742-0.746m3.629 4.055c-1.684 1.508-3.5 1.039-4.489-0.07-0.992-1.106-1.253-2.961 0.43-4.469 1.664-1.488 3.473-1.027 4.461 0.078 0.969 1.082 1.266 2.973-0.402 4.461"/>
<path d="m33.461 14.039l-0.699-1.164 2.613-1.566 0.699 1.16z"/>
<path d="m43.543 6.3242l-0.289 5.6638-0.856 0.293-1.824-2.035-0.144 2.711-0.926 0.32-3.813-4.2575-0.582 0.125-0.191-0.5547 1.254-0.4062 1.328-0.4805 0.191 0.5547-0.414 0.207 2.539 2.9302 0.036-1.9536-1.27-1.4141-0.457 0.0821-0.191-0.5547 1.128-0.3633 1.536-0.5508 0.191 0.5547-0.68 0.2969 2.532 2.9338 0.089-3.8244-0.742 0.1796-0.191-0.5546 1.176-0.3789 0.918-0.3672 0.203 0.5781z"/>
<path d="m48.094 11.117l-1.797 0.149-0.039-0.586 0.957-0.153-0.309-4.445-0.968-0.0078-0.043-0.5859 1.8-0.0977 1.754-0.1484 0.043 0.5859-0.961 0.1407 0.313 4.4492 0.968 0.016 0.043 0.586z"/>
<path d="m56.719 11.816l-2.504-0.406-0.809-0.144-1.82-0.266 0.094-0.582 0.968 0.07 0.715-4.3982-0.945-0.2265 0.094-0.5781 1.8 0.3125 1.723 0.2539-0.094 0.582-0.968-0.0859-0.723 4.4613c0.098 0.015 1.352 0.195 1.41 0.203 0.168 0.027 0.461 0.039 0.488 0.008 0.032-0.032 0.446-0.852 0.504-0.977l0.598 0.098z"/>
<path d="m63.703 14.738l-1.668-0.773 0.258-0.527 0.914 0.347 0.828-1.719-2.539-1.218-0.824 1.714 0.836 0.497-0.258 0.531-1.578-0.789-1.633-0.758 0.254-0.531 0.91 0.343 1.93-4.0191-0.84-0.4843 0.254-0.5274 1.613 0.8008 1.602 0.7461-0.254 0.5273-0.906-0.3554-0.809 1.687 2.539 1.219 0.809-1.6834-0.852-0.4883 0.254-0.5312 1.57 0.7812 1.657 0.7697-0.258 0.527-0.91-0.355-1.934 4.019 0.848 0.496-0.254 0.532z"/>
<path d="m68.176 18.02l-0.621-0.543-1.481-1.223 0.383-0.449 0.855 0.617 2.891-3.41-0.676-0.7 0.383-0.449 1.367 1.211 0.965 0.785 1.035 0.875 0.254-0.207 0.453 0.383-0.304 0.356-0.895 1.113-0.441-0.375 0.429-0.77-1.347-1.14-1.172 1.379 1.004 0.855 0.492-0.449 0.441 0.375-1.324 1.562-0.441-0.375 0.383-0.586-1.004-0.851-1.094 1.289c-0.063 0.074-0.121 0.148-0.121 0.164 0.086 0.086 0.16 0.184 0.379 0.371 0.316 0.266 0.742 0.641 0.777 0.672 0.129 0.109 0.352 0.297 0.375 0.285 0.043-0.008 0.567-0.492 0.668-0.597l0.449 0.386-1.008 1.188z"/>
<path d="m74.504 24.883l-1.59-1.981-0.504-0.648-1.168-1.418 0.461-0.367 0.668 0.699 3.477-2.789-0.547-0.801 0.457-0.367 1.125 1.437 1.105 1.344-0.457 0.371-0.66-0.711-3.527 2.828c0.062 0.075 0.875 1.051 0.914 1.098 0.105 0.133 0.312 0.336 0.355 0.332s0.903-0.336 1.028-0.39l0.375 0.472z"/>
<path d="m78.559 32.25l-0.7-1.34 0.524-0.265 0.375 0.582 3.336-1.743-5.149 0.086 2.86-3.996-3.153 1.465 0.286 0.734-0.524 0.266-0.414-0.875-0.703-1.348 0.523-0.265 0.473 0.777 4.074-1.875-0.375-0.906 0.524-0.266 0.679 1.375 0.438 0.852-2.332 3.203 3.894-0.109 0.336 0.699 0.934 1.828-0.524 0.266-0.519-0.875-3.945 2.132 0.39 0.942-0.523 0.261z"/>
<path d="m80.168 36.938l-0.539-1.719 0.562-0.168 0.36 0.902 4.273-1.269-0.207-0.946 0.563-0.168 0.492 1.735 0.523 1.683-0.562 0.168-0.344-0.906-4.273 1.27 0.195 0.949-0.566 0.168z"/>
<path d="m87.047 45.613l-5.152 0.719-0.141-1.008 3.605-3.929-3.347 0.464 0.05 0.899-0.593 0.082-0.137-1.25-0.23-1.383 0.582-0.082 0.195 0.875 4.273-0.594c0.157-0.179 0.153-0.484 0.071-1.07l0.605-0.086 0.328 2.371-3.254 3.574 3.028-0.418-0.051-0.894 0.582-0.082 0.16 1.246 0.203 1.375-0.582 0.082z"/>
<path d="m86.488 50.984l-1.73-0.738-0.031 1.305zm-4.476 2.356l0.019-1.899 0.586 0.012 0.055 0.836 1.355-0.477 0.039-1.898-1.328-0.559-0.093 1.024-0.59-0.016 0.054-1.328-0.011-1.062 0.574 0.015 0.07 0.532 5.012 2.214c0.101 0.34 0.32 0.661 0.496 0.895l-0.008 0.254-5.609 2.097-0.094 0.59-0.59-0.011z"/>
</g>
</g>
</g>
</svg>
