<svg xmlns="http://www.w3.org/2000/svg" width="100pt" height="100pt" viewBox="0 0 100 100"><g><path d="M65.734 9.196l-15.734 15.883-15.734-15.883h31.469" fill="#b0b002"/><path d="M57.504 78.582c4.531-4.574 4.035-7.094.07-11.098l-7.574-7.641-13.031 13.156 7.574 7.645c4.066 4.09 7.039 3.914 11.473-.563zm11.73-20.973c3.492-3.523 3.496-5.605 0-9.125l-3.988-4.027-8.922 9.004 3.992 4.027c3.738 3.777 5.824 3.25 7.633 1.418zm10.801-40.855s1.109-.969 2.238-3.523h17.188c-4.566 1.371-6.77 3.508-6.77 3.508l-23.598 23.832 4.543 4.586c5.375 5.426 6.102 10.977.688 16.445l-1.023 1.031c-3.906 3.941-4.918 3.77-7.879 3.992 3.012 4.352 3.301 9.758-1.59 14.695l-5.34 5.395c-5.379 5.422-11.555 5.477-16.965.016l-26.648-26.902s-1.07-1.07-3.008.07l7.598-7.676c-1.16 1.957-.066 3.043-.066 3.043l5.785 5.84c4.063 4.09 7.035 3.918 11.473-.563l1.484-1.504c4.535-4.57 4.035-7.094.07-11.094l-30.91-31.207s-2.203-2.137-6.766-3.504h17.184c1.129 2.551 2.242 3.52 2.242 3.52l30.035 30.324 30.035-30.324" fill="#54513a"/></g></svg>